<svg xmlns="http://www.w3.org/2000/svg" width="64" height="64" color-interpolation="linearRGB"><radialGradient id="a" cx="0" cy="0" r="64" gradientTransform="matrix(.4687 0 0 .4375 32 36)" gradientUnits="userSpaceOnUse"><stop offset=".491" stop-color="#010000" stop-opacity=".267"/><stop offset="1" stop-color="#010000" stop-opacity="0"/></radialGradient><path d="M32 0C14 0 0 14 0 32s14 32 32 32 32-14 32-32S50 0 32 0" style="fill:url(#a)" transform="matrix(.7187 0 0 .3125 18 44)"/><path d="M40 51v5c0 3.45-3.47 6-8 6-4.54 0-8-2.55-8-6v-5" style="fill:none;stroke:#010000;stroke-width:4"/><radialGradient id="b" cx="0" cy="0" r="64" gradientTransform="matrix(.2158 .038 -.0246 .1394 27.903 52.23)" gradientUnits="userSpaceOnUse"><stop offset=".44" stop-color="#f2f2f2"/><stop offset=".641" stop-color="#8e8e8e"/><stop offset=".835" stop-color="#e1e1e1"/><stop offset="1" stop-color="#595959"/></radialGradient><path d="M40 51v5c0 3.45-3.47 6-8 6-4.54 0-8-2.55-8-6v-5" style="fill:url(#b)"/><path d="M43 43v2c0 4.75-4.95 9-11 9-6.06 0-11-4.25-11-9v-2m15 2c10.23-1.87 18-10.3 18-21-.01-12.07-9.86-22-22-22-12.15 0-22 9.93-22 22 0 10.7 7.76 19.13 18 21" style="fill:none;stroke:#010000;stroke-width:4"/><radialGradient id="c" cx="0" cy="0" r="64" gradientTransform="translate(24 16)scale(.4687)" gradientUnits="userSpaceOnUse"><stop offset=".194" stop-color="#fff"/><stop offset=".839" stop-color="#ffe500"/><stop offset="1" stop-color="#ffc800"/></radialGradient><path d="M43 43v2c0 4.75-4.95 9-11 9-6.06 0-11-4.25-11-9v-2" style="fill:url(#c)"/><radialGradient id="d" cx="0" cy="0" r="64" gradientTransform="translate(24 16)scale(.4687)" gradientUnits="userSpaceOnUse"><stop offset=".194" stop-color="#fff"/><stop offset=".839" stop-color="#ffe500"/><stop offset="1" stop-color="#ffc800"/></radialGradient><path d="M36 45c10.23-1.87 18-10.3 18-21-.01-12.07-9.86-22-22-22-12.15 0-22 9.93-22 22 0 10.7 7.76 19.13 18 21" style="fill:url(#d)"/><radialGradient id="e" cx="0" cy="0" r="64" gradientTransform="translate(24 16)scale(.4687)" gradientUnits="userSpaceOnUse"><stop offset="0" stop-color="#ffe6a5"/><stop offset=".89" stop-color="#ffbb03"/><stop offset="1" stop-color="#ffbf00"/></radialGradient><path d="M32 48V34" style="fill:none;stroke:url(#e);stroke-width:4;stroke-linecap:round;stroke-linejoin:round"/><radialGradient id="f" cx="0" cy="0" r="64" gradientTransform="translate(24 16)scale(.4687)" gradientUnits="userSpaceOnUse"><stop offset="0" stop-color="#ffe6a5"/><stop offset=".89" stop-color="#ffbb03"/><stop offset="1" stop-color="#ffbf00"/></radialGradient><path d="M28 28c0-3.23 1.73-6 4-6 2.26 0 4 2.77 4 6 0 3.22-1.74 6-4 6-2.27 0-4-2.78-4-6" style="fill:none;stroke:url(#f);stroke-width:4;stroke-linecap:round;stroke-linejoin:round"/><path d="M20 42c2.38 1.48 5.1 2.47 8 3 0 0-5 0-8-2z" style="fill:#010000"/><path d="M20 42c2.38 1.48 5.1 2.47 8 3 0 0-5 0-8-2z" style="fill:#010000" transform="matrix(-1 0 0 1 64 0)"/></svg>