<svg xmlns="http://www.w3.org/2000/svg" width="64" height="64" color-interpolation="linearRGB"><path d="m55 64 8-8-8-4-15 2-4 4 4 4zM28 52c-6.63 0-12 2.68-12 6 0 3.31 5.37 6 12 6 6.62 0 12-2.69 12-6 0-3.32-5.38-6-12-6" style="fill:#010101;fill-opacity:.4666"/><path d="M24 40c-5.53 0-10 4.47-10 10 0 5.52 4.47 10 10 10 5.52 0 10-4.48 10-10 0-5.53-4.48-10-10-10z" style="fill:none;stroke:#000;stroke-width:4"/><radialGradient id="a" cx="0" cy="0" r="64" gradientTransform="translate(20.8 47)scale(.2281)" gradientUnits="userSpaceOnUse"><stop offset="0" stop-color="#fff"/><stop offset=".25" stop-color="#ff3930"/><stop offset=".815" stop-color="maroon"/><stop offset="1" stop-color="#bf0000"/></radialGradient><path d="M24 40c-5.53 0-10 4.47-10 10 .01 5.52 4.47 10 10 10 5.52 0 10-4.48 10-10-2 2-8-1-12-3 0 0 0-3 2-7" style="fill:url(#a)"/><radialGradient id="b" cx="0" cy="0" r="64" gradientTransform="translate(20.8 47)scale(.2281)" gradientUnits="userSpaceOnUse"><stop offset="0" stop-color="#ff756e"/><stop offset=".301" stop-color="#d50f05"/><stop offset=".815" stop-color="maroon"/><stop offset="1" stop-color="#bf0000"/></radialGradient><path d="M24 40c-2 4-2 7-2 7 4 2 10 5 12 3 0-5.53-4.48-10-10-10" style="fill:url(#b)"/><path d="M21 2 10 8l11 35 8-8 9-29z" style="fill:none;stroke:#000;stroke-width:4"/><linearGradient id="c" x1="60.24" x2="76.04" y1="-28.46" y2="-10.2" gradientUnits="userSpaceOnUse"><stop offset="0" stop-color="#ff6159"/><stop offset="1" stop-color="#e40000"/></linearGradient><path d="m10 8 11 35 7-30z" style="fill:url(#c)"/><linearGradient id="d" x1="50.37" x2="56.59" y1="-23.39" y2="-20.34" gradientUnits="userSpaceOnUse"><stop offset="0" stop-color="maroon"/><stop offset="1" stop-color="#a00404"/></linearGradient><path d="m28 13-7 30 8-8 9-29z" style="fill:url(#d)"/><linearGradient id="e" x1="12" x2="36" y1="-20" y2="-20" gradientUnits="userSpaceOnUse"><stop offset="0" stop-color="#ffc6c0"/><stop offset="1" stop-color="#ff7575"/></linearGradient><path d="M21 2 10 8l18 5 10-7z" style="fill:url(#e)"/></svg>