<svg xmlns="http://www.w3.org/2000/svg" width="64" height="64" color-interpolation="linearRGB"><path d="m36 42-4 22h4l10-10h3l7-7-10-5zm18 0c-5.53 0-10 2.46-10 5.5 0 3.03 4.47 5.5 10 5.5 5.52 0 10-2.47 10-5.5 0-3.04-4.48-5.5-10-5.5" style="fill:#000;fill-opacity:.3294"/><path d="M34 45V21l-13-5-11 6v3l4 3v11l-8 5v4l26 14 10-10v-4z" style="fill:none;stroke:#000;stroke-width:4"/><linearGradient id="a" x1="25.16" x2="56.75" y1="-43.14" y2="-34.42" gradientUnits="userSpaceOnUse"><stop offset="0" stop-color="#227aff"/><stop offset="1" stop-color="#0025e5"/></linearGradient><path d="M24 53V28l-14-6v3l4.03 3.26L14 48l-8-4v4l26 14v-5z" style="fill:url(#a)"/><linearGradient id="b" x1="46.77" x2="65.47" y1="-64.5" y2="-60.17" gradientUnits="userSpaceOnUse"><stop offset="0" stop-color="#000081"/><stop offset="1" stop-color="#0909b7"/></linearGradient><path d="M32 57v5l10-10v-4z" style="fill:url(#b)"/><linearGradient id="c" x1="46.77" x2="65.47" y1="-64.5" y2="-60.17" gradientUnits="userSpaceOnUse"><stop offset="0" stop-color="#000081"/><stop offset="1" stop-color="#0909b7"/></linearGradient><path d="m24 53 10-8V21l-10 7z" style="fill:url(#c)"/><linearGradient id="d" x1="17.32" x2="29.9" y1="37.58" y2="31.35" gradientUnits="userSpaceOnUse"><stop offset="0" stop-color="#050ec5"/><stop offset="1" stop-color="#062fe3"/></linearGradient><path d="m42 48-8-3-10 8 12.4.03z" style="fill:url(#d)"/><linearGradient id="e" x1="-8.63" x2="12.76" y1="21.52" y2="10.9" gradientUnits="userSpaceOnUse"><stop offset="0" stop-color="#67b5ff"/><stop offset="1" stop-color="#3b79f6"/></linearGradient><path d="m24 53 8 4 4.4-3.97z" style="fill:url(#e)"/><linearGradient id="f" x1="-8.63" x2="12.76" y1="21.52" y2="10.9" gradientUnits="userSpaceOnUse"><stop offset="0" stop-color="#67b5ff"/><stop offset="1" stop-color="#3b79f6"/></linearGradient><path d="m6 44 8 4v-9z" style="fill:url(#f)"/><radialGradient id="g" cx="0" cy="0" r="64" gradientTransform="matrix(.3125 0 0 .1406 30 22)" gradientUnits="userSpaceOnUse"><stop offset="0" stop-color="#0530d1"/><stop offset="1" stop-color="#67b5ff"/></radialGradient><path d="m21 16-11 6 14 6 10-7z" style="fill:url(#g)"/><path d="M22 2c-5.53 0-10.01 4.47-10 10 0 5.52 4.47 10 10 10 5.52 0 10-4.48 10-10 0-5.53-4.48-10-10-10z" style="fill:none;stroke:#000;stroke-width:4"/><radialGradient id="h" cx="0" cy="0" r="64" gradientTransform="translate(19 9.43)scale(.2031)" gradientUnits="userSpaceOnUse"><stop offset="0" stop-color="#3787ff"/><stop offset=".337" stop-color="#1b76ff"/><stop offset=".859" stop-color="#000081"/><stop offset="1" stop-color="#031d8c"/></radialGradient><path d="M22 2c-5.53 0-10.01 4.47-10 10 0 5.52 4.47 10 10 10 5.52 0 10-4.48 10-10 0-5.53-4.48-10-10-10" style="fill:url(#h)"/><radialGradient id="i" cx="0" cy="0" r="64" gradientTransform="matrix(.0527 0 0 -.0527 19 9)" gradientUnits="userSpaceOnUse"><stop offset="0" stop-color="#fff"/><stop offset="1" stop-color="#3787ff"/></radialGradient><path d="M19 5.62c-1.87 0-3.38 1.51-3.37 3.38 0 1.86 1.5 3.37 3.37 3.37s3.37-1.51 3.37-3.37c0-1.87-1.51-3.38-3.37-3.38" style="fill:url(#i)"/></svg>