<svg xmlns="http://www.w3.org/2000/svg" width="64" height="64" color-interpolation="linearRGB"><path d="M30 62h6l2-2 4 2h14l8-10-10-4H44l-1 1-3-1h-2z" style="fill:#010101;fill-opacity:.4549"/><path d="M14 41v11l16 8 8-8V41l-16-6z" style="fill:none;stroke:#000;stroke-width:4"/><linearGradient id="a" x1="56.22" x2="49.67" y1="56.15" y2="65.65" gradientUnits="userSpaceOnUse"><stop offset="0" stop-color="#e07900"/><stop offset="1" stop-color="#fff289"/></linearGradient><path d="m14 41 16 7 8-7-16-6z" style="fill:url(#a)"/><path d="M14 6v28l16 7 8-6V6L22 2z" style="fill:none;stroke:#000;stroke-width:4"/><linearGradient id="b" x1="24.32" x2="51.3" y1="-24.13" y2="-13.84" gradientUnits="userSpaceOnUse"><stop offset="0" stop-color="#fff49e"/><stop offset="1" stop-color="#ffbd30"/></linearGradient><path d="M14 6v28l16 7V11zm0 35v11l16 8V48z" style="fill:url(#b)"/><linearGradient id="c" x1="30.5" x2="56.01" y1="-22.81" y2="-9.13" gradientUnits="userSpaceOnUse"><stop offset="0" stop-color="#fff"/><stop offset="1" stop-color="#fff289"/></linearGradient><path d="m14 6 16 5 8-5-16-4z" style="fill:url(#c)"/><linearGradient id="d" x1="33.3" x2="46.77" y1="-.68" y2=".74" gradientUnits="userSpaceOnUse"><stop offset="0" stop-color="#ed9406"/><stop offset="1" stop-color="#fcb23d"/></linearGradient><path d="M30 11v30l8-6V6zm0 37v12l8-8V41z" style="fill:url(#d)"/></svg>