<svg xmlns="http://www.w3.org/2000/svg" width="64" height="64" color-interpolation="linearRGB"><path d="M31 32c-7-4-17-6-24-1-3 2-5 6-5 9 0 5 2 9 5 13-1 2-3 2-5 1 3 2 6 3 8 2 2 2 5 3 7 4 3 1 7 2 11 2 6 0 11-2 13-7 4-9-3-19-10-23z" style="fill:none;stroke:#000;stroke-width:4" transform="translate(.17 -.072)scale(.9999)"/><radialGradient id="a" cx="0" cy="0" r="64" gradientTransform="matrix(.4391 .2625 -.1589 .2658 13.647 37.066)" gradientUnits="userSpaceOnUse"><stop offset="0" stop-color="#fff"/><stop offset=".706" stop-color="#ffe405"/><stop offset="1" stop-color="#ffa405"/></radialGradient><path d="M31 32c-7-4-17-6-24-1-3 2-5 6-5 9 0 5 2 9 5 13-1 2-3 2-5 1 3 2 6 3 8 2 2 2 5 3 7 4 3 1 7 2 11 2 6 0 11-2 13-7 4-9-3-19-10-23" style="fill:url(#a)"/><radialGradient id="b" cx="0" cy="0" r="64" gradientTransform="matrix(.4391 .2625 -.1589 .2658 13.647 37.066)" gradientUnits="userSpaceOnUse"><stop offset="0" stop-color="#ffe405"/><stop offset="1" stop-color="#ffa405"/></radialGradient><path d="M31 32c-2-1-4-3-6.95-2.93C19 29 24 36 29 41s11 10 13 8c0-7-6-14-11-17" style="fill:url(#b)"/><path d="M15 46c-2 0-5-1-5-1s3 5 5 6m4-4c3 0 4 4 1 4 3 2 2 6-2 3" style="fill:none;stroke:#000;stroke-width:2;stroke-linecap:square"/><path d="M54 37c4.2-2.13 8-5 8-11 0-7.67-5-15.69-12-19.69-8-5-20-6-27-1C17.78 9.03 17 16 19 21c3 9 14 15 23 17 3 1 6.54.85 9 0 2 5 5 9 9.25 10.2C58 47 55.2 41.87 54 37z" style="fill:none;stroke:#000;stroke-width:4"/><radialGradient id="c" cx="0" cy="0" r="64" gradientTransform="matrix(.4075 .2896 -.2096 .2949 34.23 11.689)" gradientUnits="userSpaceOnUse"><stop offset="0" stop-color="#fff"/><stop offset=".706" stop-color="#7fe583"/><stop offset="1" stop-color="#04b10c"/></radialGradient><path d="M54 37c4.2-2.13 8-5 8-11 0-7.67-5-15.69-12-19.69-8-5-20-6-27-1C17.78 9.03 17 16 19 21c3 9 14 15 23 17 3 1 6.54.85 9 0 2 5 5 9 9.25 10.2C58 47 55.2 41.87 54 37" style="fill:url(#c)"/><path d="m30 23 4 2m-9-7.38v1m.37 4.25.19 1.38M37 21s2 4 2 7-2 4-2 4" style="fill:none;stroke:#000;stroke-width:2;stroke-linecap:square"/></svg>