<svg xmlns="http://www.w3.org/2000/svg" width="64" height="64" color-interpolation="linearRGB"><path d="m27 62 2 2 3.13-3.17L37 64l8.39-11.46L64 43l-5-3 2 2-25 12zm31-23 4-3-4-2-3 3z" style="fill:#010101;fill-opacity:.5725"/><path d="M6.25 35s5.62 6 10.62 12.5 9.38 13.25 9.38 13.25l32.87-18.88L32 20z" style="fill:none;stroke:#010101;stroke-width:4"/><radialGradient id="a" cx="0" cy="0" r="64" gradientTransform="matrix(.5714 0 0 .3333 26 40)" gradientUnits="userSpaceOnUse"><stop offset=".489" stop-color="#f1b706"/><stop offset="1" stop-color="#fffcc0"/></radialGradient><path d="M6.25 35s5.62 6 10.62 12.5 9.38 13.25 9.38 13.25l23.79-13.67L46 47l3-4 8.05.06 2.07-1.19L32 20z" style="fill:url(#a)"/><path d="M50.04 47.08 46 47l3-4 8.05.06z" style="fill:#e2c255"/><path d="M2.62 35.87s8.33 5.39 16.38 11c8.44 5.88 16.75 10.88 16.75 10.88l22.37-26.38s-12.68-5.67-22.75-11c-5.19-2.75-9.37-6-9.37-6z" style="fill:none;stroke:#010101;stroke-width:4"/><linearGradient id="b" x1="107.04" x2="118.33" y1="-12.09" y2="32.99" gradientUnits="userSpaceOnUse"><stop offset="0" stop-color="#ffefa5"/><stop offset=".742" stop-color="#fffcc0"/><stop offset="1" stop-color="#fff890"/></linearGradient><path d="M2.62 35.87s8.33 5.39 16.38 11c8.44 5.88 16.75 10.88 16.75 10.88L44.86 47 33 45.25 23 43l2-1 12-1.25 12.74.5 8.38-9.88s-12.68-5.67-22.75-11c-5.19-2.75-9.37-6-9.37-6z" style="fill:url(#b)"/><linearGradient id="c" x1="-47.14" x2="-28.46" y1="-15.78" y2="-37.85" gradientUnits="userSpaceOnUse"><stop offset="0" stop-color="#010101"/><stop offset="1" stop-color="#9e9e9e"/></linearGradient><path d="m20 41 14.87-15.13M14 37l12.87-13" style="fill:none;stroke:url(#c);stroke-width:1"/><linearGradient id="d" x1="-47.14" x2="-28.46" y1="-15.78" y2="-37.85" gradientUnits="userSpaceOnUse"><stop offset="0" stop-color="#010101"/><stop offset="1" stop-color="#9e9e9e"/></linearGradient><path d="m17 39 11.12-11.38" style="fill:none;stroke:url(#d);stroke-width:1"/><linearGradient id="e" x1="17.77" x2="46.22" y1="-64" y2="-64" gradientUnits="userSpaceOnUse"><stop offset="0" stop-color="#c5b03a"/><stop offset="1" stop-color="#e9da71"/></linearGradient><path d="M44.86 47 33 45.25 23 43l2-1 12-1.25 12.74.5z" style="fill:url(#e)"/><path d="M17 4h34s3 1 3 5-3 5-3 5H17L6 9zm.96.58L16 7v4l1.96 2.41m27-8.83C44.1 5.25 43 6.57 43 9c0 2.42 1.1 3.74 1.96 4.41" style="fill:none;stroke:#010101;stroke-width:4" transform="rotate(-45.001 53.218 -.332)"/><linearGradient id="f" x1="43.05" x2="40.39" y1="9.82" y2="21.77" gradientUnits="userSpaceOnUse"><stop offset="0" stop-color="#ffeed5"/><stop offset=".553" stop-color="#dbab5f"/><stop offset=".814" stop-color="#ffeed5"/></linearGradient><path d="m17 4-2.63 2.76v4.47L17 14 8.69 9.84l.05-1.72z" style="fill:url(#f)" transform="rotate(-45.001 53.218 -.332)"/><linearGradient id="g" x1="10.58" x2="63.41" y1="-64" y2="-64" gradientUnits="userSpaceOnUse"><stop offset="0" stop-color="#ffeaba"/><stop offset="1" stop-color="#fff6e3"/></linearGradient><path d="m19 4-2.91 2.84L42 7l3-3z" style="fill:url(#g)" transform="rotate(-45.001 53.218 -.332)"/><linearGradient id="h" x1="19.74" x2="52.25" y1="-64" y2="-64" gradientUnits="userSpaceOnUse"><stop offset="0" stop-color="#f0ab06"/><stop offset="1" stop-color="#fbb50d"/></linearGradient><path d="M16.09 6.84v4.31L42 11V7z" style="fill:url(#h)" transform="rotate(-45.001 53.218 -.332)"/><linearGradient id="i" x1="129.35" x2="124.48" y1="27.64" y2="47.37" gradientUnits="userSpaceOnUse"><stop offset="0" stop-color="#a52a04"/><stop offset="1" stop-color="#fdb44b"/></linearGradient><path d="M16.09 11.15 19 14h26l-3-3z" style="fill:url(#i)" transform="rotate(-45.001 53.218 -.332)"/><linearGradient id="j" x1="69.23" x2="69.23" y1="1.9" y2="14.09" gradientUnits="userSpaceOnUse"><stop offset="0" stop-color="#ffeaee"/><stop offset=".776" stop-color="#d17c8a"/><stop offset="1" stop-color="#da9faa"/></linearGradient><path d="M51 4s-3 1-3 5 3 5 3 5h-4s-3-1-3-5 3-5 3-5z" style="fill:url(#j)" transform="rotate(-45.001 53.218 -.332)"/><linearGradient id="k" x1="114.68" x2="114.6" y1="3.18" y2="19.44" gradientUnits="userSpaceOnUse"><stop offset="0" stop-color="#ffe3e8"/><stop offset="1" stop-color="#f8a1b1"/></linearGradient><path d="M51 4s3 1 3 5-3 5-3 5-3-1-3-5 3-5 3-5" style="fill:url(#k)" transform="rotate(-45.001 53.218 -.332)"/></svg>