<svg xmlns="http://www.w3.org/2000/svg" width="64" height="64" color-interpolation="linearRGB"><path d="M19 60h6l8-8 14 8h6l11-11-7-4-27 4z" style="fill:#010101;fill-opacity:.4549"/><path d="M18 14v16l16 8 10-10V12L29 6z" style="fill:none;stroke:#000;stroke-width:4" transform="translate(-16 20)"/><linearGradient id="a" x1="26.68" x2="34.48" y1="46.52" y2="36.39" gradientUnits="userSpaceOnUse"><stop offset="0" stop-color="#c6d7f5"/><stop offset="1" stop-color="#6b94dd"/></linearGradient><path d="M18 14v16l16 8V21z" style="fill:url(#a)" transform="translate(-16 20)"/><path d="M34 21v17l10-10V12z" style="fill:#003cb0" transform="translate(-16 20)"/><path d="m24 34 4 11v-9z" style="fill:#0d2964" transform="translate(0 1)"/><linearGradient id="b" x1="26.68" x2="34.48" y1="46.52" y2="36.39" gradientUnits="userSpaceOnUse"><stop offset="0" stop-color="#c6d7f5"/><stop offset="1" stop-color="#6b94dd"/></linearGradient><path d="m2 34 16 7 10-9-15-6z" style="fill:url(#b)"/><path d="M18 14v16l16 8 10-10V12L29 6z" style="fill:none;stroke:#000;stroke-width:4" transform="translate(12 20)"/><path d="m34 43-.01 8.99L46 58V41l-4.93-2.16z" style="fill:#ec6666"/><path d="M30 34v16l3.99 1.99L34 43l7.07-4.16z" style="fill:#cd4d4d"/><linearGradient id="c" x1="70.4" x2="71.08" y1="34.52" y2="50.83" gradientUnits="userSpaceOnUse"><stop offset="0" stop-color="#a3043c"/><stop offset="1" stop-color="#ffdce6"/></linearGradient><path d="M34 21v17l10-10V12z" style="fill:url(#c)" transform="translate(12 20)"/><path d="M41.07 38.84 46 41l10-9-5.01-2.01z" style="fill:#ffacac"/><linearGradient id="d" x1="138.84" x2="86.24" y1="49.93" y2="116.1" gradientUnits="userSpaceOnUse"><stop offset="0" stop-color="#c13e3e"/><stop offset="1" stop-color="#e27a7a"/></linearGradient><path d="m30 34 11.07 4.84 9.92-8.85L41 26z" style="fill:url(#d)"/><path d="M18 14v16l16 8 10-10V12L29 6z" style="fill:none;stroke:#000;stroke-width:4"/><linearGradient id="e" x1="-19.87" x2="5.48" y1="-1.53" y2="-26.29" gradientUnits="userSpaceOnUse"><stop offset="0" stop-color="#ffec4b"/><stop offset="1" stop-color="#f0a506"/></linearGradient><path d="M18 14v16l16 8V21z" style="fill:url(#e)"/><linearGradient id="f" x1="30.5" x2="56.01" y1="-22.81" y2="-9.13" gradientUnits="userSpaceOnUse"><stop offset="0" stop-color="#fff"/><stop offset="1" stop-color="#fff289"/></linearGradient><path d="m18 14 16 7 10-9-15-6z" style="fill:url(#f)"/><linearGradient id="g" x1="53.01" x2="69.94" y1="-9.55" y2="3.43" gradientUnits="userSpaceOnUse"><stop offset="0" stop-color="#f99b05"/><stop offset="1" stop-color="#fcb23d"/></linearGradient><path d="M34 21v17l10-10V12z" style="fill:url(#g)"/></svg>