<svg xmlns="http://www.w3.org/2000/svg" width="64" height="64" color-interpolation="linearRGB"><path d="M38 64s4 0 6-2c2 0 7 0 11-1 0 0 2 1 3 0s1-3 1-3c1-1 5-6 4.96-10.94C64 44 62 41 60 40c2-2 0-8-6-8L8 38v16s0 2 6 2c0 0 2 4 10 4h14z" style="fill:#010101;fill-opacity:.4627"/><path d="M30 2c15.68 0 28 12.31 28 28 0 15.68-12.32 28-28 28C14.31 58 2 45.68 2 30 2 14.31 14.31 2 30 2z" style="fill:none;stroke:#010101;stroke-width:4"/><path d="M38 62c-4 0-4-6-4-6 0-1 2-2 4-2s4 1 4 2c0 0 0 6-4 6z" style="fill:none;stroke:#010101;stroke-width:4" transform="matrix(.5359 .8442 -.7035 .4466 29.6 -7.45)"/><radialGradient id="a" cx="0" cy="0" r="64" gradientTransform="matrix(.125 0 0 .1093 35 56)" gradientUnits="userSpaceOnUse"><stop offset="0" stop-color="#ffacac"/><stop offset="1" stop-color="#d04e4e"/></radialGradient><path d="M38 62c-4 0-4-6-4-6 0-1 2-2 4-2s4 1 4 2c0 0 0 6-4 6" style="fill:url(#a)" transform="rotate(57.593 31.28 28.534)"/><path d="M38 62c-4 0-4-6-4-6 0-1 2-2 4-2s4 1 4 2c0 0 0 6-4 6z" style="fill:none;stroke:#010101;stroke-width:4" transform="rotate(-45.001 39.56 25.354)scale(1 .8332)"/><path d="M38 62c-4 0-4-6-4-6 0-1 2-2 4-2s4 1 4 2c0 0 0 6-4 6" style="fill:#a72323" transform="rotate(-45.001 26.686 30.686)"/><radialGradient id="b" cx="0" cy="0" r="64" gradientTransform="translate(18 18)scale(.625)" gradientUnits="userSpaceOnUse"><stop offset=".003" stop-color="#fff"/><stop offset=".495" stop-color="#ffacac"/><stop offset="1" stop-color="#d04e4e"/></radialGradient><path d="M30 2c15.68 0 28 12.31 28 28 0 15.68-12.32 28-28 28C14.31 58 2 45.68 2 30 2 14.31 14.31 2 30 2" style="fill:url(#b)"/><path d="M6 15c3 0 10 1 12-1s1-5-2-8m16 14c0 2 4 3 7 5s7 8 9 8c3 0 3-10 3-13zM22 58h6c3 0 7-3-2-17h-4" style="fill:#cd0505;fill-opacity:.4627"/><path d="M38 62c-4 0-4-6-4-6 0-1 2-2 4-2s4 1 4 2c0 0 0 6-4 6z" style="fill:none;stroke:#010101;stroke-width:4" transform="matrix(.9081 -.4186 .3489 .7568 -16.328 30.924)"/><radialGradient id="c" cx="0" cy="0" r="64" gradientTransform="matrix(.125 0 0 .1093 35 56)" gradientUnits="userSpaceOnUse"><stop offset="0" stop-color="#ffacac"/><stop offset="1" stop-color="#d04e4e"/></radialGradient><path d="M38 62c-4 0-4-6-4-6 0-1 2-2 4-2s4 1 4 2c0 0 0 6-4 6" style="fill:url(#c)" transform="rotate(-24.748 38.01 58.012)"/><path d="M24.03 14.07C26 11 30 7 33 5l1.96.92C32 8 28 12 26 15z" style="fill:none;stroke:#d96969;stroke-width:4"/><path d="M24.03 14.07C26 11 30 7 33 5l1.96.92C32 8 28 12 26 15z" style="fill:#010101" transform="translate(0 1)"/><path d="M28 43c0-4-6-8-14-8S0 39 0 43c0 2 2 6 2 6 2 3 7 5 12 5s10-2 12-5c0 0 2-4 2-6z" style="fill:none;stroke:#010101;stroke-width:4" transform="rotate(45.001 6.869 43.718)scale(1 .8695)"/><radialGradient id="d" cx="0" cy="0" r="64" gradientTransform="matrix(.3551 .1202 -.0847 .2502 3.745 40.536)" gradientUnits="userSpaceOnUse"><stop offset="0" stop-color="#ffdfdf"/><stop offset=".495" stop-color="#ffacac"/><stop offset="1" stop-color="#d04e4e"/></radialGradient><path d="M28 43c0-4-6-8-14-8S0 39 0 43c0 2 2 6 2 6 2 3 7 5 12 5s10-2 12-5c0 0 2-4 2-6" style="fill:url(#d)" transform="rotate(45.001 16 47.5)"/><linearGradient id="e" x1="25.73" x2="38.86" y1="26.44" y2="46.53" gradientUnits="userSpaceOnUse"><stop offset="0" stop-color="#ffacac"/><stop offset="1" stop-color="#d96969"/></linearGradient><path d="M14 40c6.71 0 12 3.08 12 7 0 3.91-5.29 7-12 7-6.73 0-12-3.09-12-7 0-3.92 5.27-7 12-7" style="fill:url(#e)" transform="rotate(45.001 16 47.5)"/><path d="M14 40c2.21 0 4.23.4 6 1-11-1-17 4-17 7s2 4 2 4c-2.04-1.25-3-3.11-3-5 0-3.92 5.27-7 12-7" style="fill:#fff" transform="rotate(45.001 16 47.5)"/><path d="M28 32c-4 0-4 6 0 6s4-6 0-6" style="fill:#010101" transform="translate(-12.838 -1.667)scale(.8333)"/><path d="M28 32c-4 0-4 6 0 6s4-6 0-6" style="fill:#010101"/><path d="M15 13c1-1 1-6-1-6l-4-1C6 6 4 6 4 8s1 6 2 7m40 12c1 0 3-2 3-6 0-3-3-5-5-5-5.1 0-11 1-10 4" style="fill:none;stroke:#010101;stroke-width:4"/><path d="M16 14c0-1 0-7-2-7l-4-1C6 6 4 6 4 8c0-2 12 5 12 6m16 6c0-1 17 0 17 1 0-3-3-5-5-5-5.1 0-12 1-12 4" style="fill:#ffacac"/><path d="M6 15c1 0 2-1 4-1h6c0-1-12-8-12-6s1 6 2 7m26 5c0 2 5 2 8 4s4 5 6 5c1 0 3-4 3-8 0-1-17-2-17-1" style="fill:#d96969"/><path d="M16 14c0-1-12-8-12-6 1-4 11 4 12 6m16 6c2-1 17-2 17 1 0-1-17-2-17-1" style="fill:#fff"/><linearGradient id="f" x1="23.07" x2="27.13" y1="40.59" y2="45" gradientUnits="userSpaceOnUse"><stop offset="0" stop-color="#a72323"/><stop offset=".45" stop-color="#ffacac"/><stop offset="1" stop-color="#fff"/></linearGradient><path d="M18 46c-3-1-3 5 0 6s3-5 0-6z" style="fill:none;stroke:url(#f);stroke-width:1" transform="matrix(.8117 0 0 .8629 -4.112 2.216)"/><linearGradient id="g" x1="23.07" x2="27.13" y1="40.59" y2="45" gradientUnits="userSpaceOnUse"><stop offset="0" stop-color="#a72323"/><stop offset=".45" stop-color="#ffacac"/><stop offset="1" stop-color="#fff"/></linearGradient><path d="M18 46c-3-1-3 5 0 6s3-5 0-6z" style="fill:none;stroke:url(#g);stroke-width:1"/></svg>