<svg xmlns="http://www.w3.org/2000/svg" width="64" height="64" color-interpolation="linearRGB"><path d="M18 62h6l2-2s8 4 18 4L28 52z" style="fill:#010101;fill-opacity:.4941"/><path d="M6 22v32l12 6 20-20V12l2-4h-8l-2 2-4-4V2L4 8l-2 6z" style="fill:none;stroke:#000;stroke-width:4"/><linearGradient id="a" x1="54.19" x2="63.71" y1="-9.12" y2="11.88" gradientUnits="userSpaceOnUse"><stop offset="0" stop-color="#9a9a9a"/><stop offset="1" stop-color="#384150"/></linearGradient><path d="m6 22 24-12v24z" style="fill:url(#a)"/><path d="m30 10 4 8 4-6z" style="fill:#a2a2a2"/><path d="M30 10v10l4-4z" style="fill:#606c7e"/><linearGradient id="b" x1="37.54" x2="62.67" y1="-6.89" y2="38.63" gradientUnits="userSpaceOnUse"><stop offset="0" stop-color="#c7ecff"/><stop offset="1" stop-color="#5fbbeb"/></linearGradient><path d="M6 22v32l12 6V30L8 26z" style="fill:url(#b)"/><path d="m6 22 2 4 10 4v-4z" style="fill:#339cd3"/><linearGradient id="c" x1="72.21" x2="77.87" y1="13.59" y2="36.96" gradientUnits="userSpaceOnUse"><stop offset="0" stop-color="#1f8cc4"/><stop offset="1" stop-color="#214c8b"/></linearGradient><path d="m18 60 20-20V12L18 26z" style="fill:url(#c)"/><linearGradient id="d" x1="60.15" x2="61.67" y1="1.45" y2="14.63" gradientUnits="userSpaceOnUse"><stop offset="0" stop-color="#b9b9b9"/><stop offset="1" stop-color="#e9e9e9"/></linearGradient><path d="m10 20-6-2-2-4 24-8 4 4z" style="fill:url(#d)"/><linearGradient id="e" x1="-2" x2="30" y1="-16" y2="-16" gradientUnits="userSpaceOnUse"><stop offset="0" stop-color="#838383"/><stop offset="1" stop-color="#999"/></linearGradient><path d="m2 14 24-8V2L4 8z" style="fill:url(#e)"/><path d="m6 22 12 4-2-4-12-4z" style="fill:#1881b7"/><path d="m38 12 2-4h-8l-2 2z" style="fill:#cacaca"/><path d="M54.06 31.18c-7.01-8.05-19.57-11.21-27.09-4.66s-5.99 19.31 1.02 27.36c7.02 8.06 19.58 11.21 27.1 4.66s5.99-19.31-1.03-27.36zm-9.52 8.39c-1.87-2.15-4.06-2.13-5.31-1.04-1.26 1.09-1.58 3.63.29 5.78 1.88 2.15 4.06 2.13 5.32 1.04 1.25-1.09 1.57-3.63-.3-5.78z" style="fill:none;stroke:#000;stroke-width:4"/><linearGradient id="f" x1="5.59" x2="43.32" y1="46.67" y2="5.73" gradientUnits="userSpaceOnUse"><stop offset="0" stop-color="#f1f1f1"/><stop offset=".212" stop-color="#d9ddf4"/><stop offset=".542" stop-color="#837ead"/><stop offset=".708" stop-color="#b8bedb"/><stop offset="1" stop-color="#f4f4f4"/></linearGradient><path d="M54.06 31.18c-7.01-8.05-19.57-11.21-27.09-4.66s-5.99 19.31 1.02 27.36c7.02 8.06 19.58 11.21 27.1 4.66s5.99-19.31-1.03-27.36M47.64 48.2c-2.5 2.18-6.88 2.21-10.62-2.08-3.74-4.3-3.11-8.63-.6-10.81s6.57-1.95 10.31 2.35 3.42 8.35.91 10.54" style="fill:url(#f)"/><path d="M47.64 48.2c-2.5 2.18-6.88 2.21-10.62-2.08-3.74-4.3-3.11-8.63-.6-10.81s6.57-1.95 10.31 2.35 3.42 8.35.91 10.54m-3.1-8.63c-1.87-2.15-4.06-2.13-5.31-1.04-1.26 1.09-1.58 3.63.29 5.78 1.88 2.15 4.06 2.13 5.32 1.04 1.25-1.09 1.57-3.63-.3-5.78" style="fill:#ebebeb;fill-opacity:.8156"/><linearGradient id="g" x1="51.27" x2="64.1" y1="8.97" y2="36.67" gradientUnits="userSpaceOnUse"><stop offset="0" stop-color="#4137a9"/><stop offset="1" stop-color="#b9b9b9"/></linearGradient><path d="M47.64 48.2c-2.5 2.18-6.88 2.21-10.62-2.08-3.74-4.3-3.11-8.63-.6-10.81s6.57-1.95 10.31 2.35 3.42 8.35.91 10.54z" style="fill:none;stroke:url(#g);stroke-width:2"/></svg>