<svg xmlns="http://www.w3.org/2000/svg" xmlns:xlink="http://www.w3.org/1999/xlink" width="64" height="64" color-interpolation="linearRGB"><defs><linearGradient xlink:href="#a" id="i" x1="12.822" x2="35.812" y1="41.906" y2="41.906" gradientUnits="userSpaceOnUse"/></defs><path d="M48 40h-4L26 64h22c8.83 0 16-5.38 16-12 0-6.63-7.17-12-16-12" style="fill:#000100;fill-opacity:.3529"/><path d="M26 8c-8.84 0-16 4.47-16 10v32c0 6.62 7.16 12 16 12 8.83 0 16-5.38 16-12V18c0-5.53-7.17-10-16-10" style="fill:none;stroke:#000100;stroke-width:4;stroke-linecap:round;stroke-linejoin:round"/><linearGradient id="b" x1="42" x2="10" y1="32" y2="32" gradientUnits="userSpaceOnUse"><stop offset="0" stop-color="#ff9e06"/><stop offset=".251" stop-color="#f7f378"/><stop offset=".845" stop-color="#ffea97"/><stop offset="1" stop-color="#ffb94b"/></linearGradient><path d="M26 28c-8.84 0-16-4.48-16-10v28c0 6.62 7.16 12 16 12 8.83 0 16-5.38 16-12V18c0 5.52-7.17 10-16 10" style="fill:url(#b)"/><linearGradient id="c" x1="42" x2="10" y1="32" y2="32" gradientUnits="userSpaceOnUse"><stop offset="0" stop-color="#38bc38"/><stop offset=".17" stop-color="#279127"/><stop offset=".826" stop-color="#53ed53"/><stop offset="1" stop-color="#2eaa2e"/></linearGradient><path d="M26 58c-8.84 0-16-5.38-16-12v4c0 6.62 7.16 12 16 12 8.83 0 16-5.38 16-12v-4c0 6.62-7.17 12-16 12" style="fill:url(#c)"/><linearGradient id="d" x1="48.49" x2="69.41" y1="-28.37" y2=".92" gradientUnits="userSpaceOnUse"><stop offset="0" stop-color="#6eff6e"/><stop offset="1" stop-color="#41ca41"/></linearGradient><path d="M10 18c0-5.53 7.16-10 16-10 8.83 0 16 4.47 16 10 0 5.52-7.17 10-16 10-8.84 0-16-4.48-16-10" style="fill:url(#d)"/><radialGradient id="e" cx="0" cy="0" r="64" gradientTransform="matrix(.2858 .0444 -.0282 .182 23.927 16.026)" gradientUnits="userSpaceOnUse"><stop offset="0" stop-color="#eaeaea"/><stop offset=".578" stop-color="#bdbdbd"/><stop offset="1" stop-color="#535353"/></radialGradient><path d="M40 18c0 4.41-6.27 8-14 8-7.74 0-14-3.59-14-8 0-6 6.26-10 14-10 7.73 0 14 4 14 10" style="fill:url(#e)"/><path d="M18 6c0-2.21 3.58-4 8-4 4.41 0 8 1.79 8 4v6c0 2.2-3.59 4-8 4-4.42 0-8-1.8-8-4z" style="fill:none;stroke:#000100;stroke-width:4;stroke-linecap:round;stroke-linejoin:round"/><linearGradient id="f" x1="18" x2="34" y1="4" y2="4" gradientUnits="userSpaceOnUse"><stop offset="0" stop-color="#c5c5c5"/><stop offset=".25" stop-color="#eee"/><stop offset="1" stop-color="#828282"/></linearGradient><path d="M18 6c0-2.21 3.58-4 8-4 4.41 0 8 1.79 8 4v6c0 2.2-3.59 4-8 4-4.42 0-8-1.8-8-4z" style="fill:url(#f)"/><linearGradient id="g" x1="71.36" x2="90.86" y1="-20.93" y2="8.06" gradientUnits="userSpaceOnUse"><stop offset="0" stop-color="#fff"/><stop offset="1" stop-color="#9e9e9e"/></linearGradient><path d="M10 18c0-5.53 7.16-10 16-10 8.83 0 16 4.47 16 10 0 5.52-7.17 10-16 10-8.84 0-16-4.48-16-10" style="fill:url(#g)" transform="matrix(.5 0 0 .4 13 -1.2)"/><linearGradient id="h" x1="42.73" x2="56.41" y1="-9.97" y2="20.1" gradientUnits="userSpaceOnUse"><stop offset="0" stop-color="#f3f3f3"/><stop offset="1" stop-color="#d7d7d7"/></linearGradient><path d="M10 18c0-5.53 7.16-10 16-10 8.83 0 16 4.47 16 10 0 5.52-7.17 10-16 10-8.84 0-16-4.48-16-10" style="fill:url(#h)" transform="matrix(.4197 0 0 .2832 15.022 .728)"/><path d="M10 18c0-5.53 7.16-10 16-10 8.83 0 16 4.47 16 10 0 5.52-7.17 10-16 10-8.84 0-16-4.48-16-10" style="fill:#000100" transform="matrix(.125 0 0 .2 17.75 8.4)"/><linearGradient id="a" x1="10" x2="42" y1="32" y2="32" gradientUnits="userSpaceOnUse"><stop offset="0" stop-color="#ff0606"/><stop offset=".242" stop-color="#ff4706"/><stop offset="1" stop-color="#d60505"/></linearGradient><path d="M25.55 32.12c-6.91-1.09-11.17.26-12.11 6.18-.86 5.46 3.09 12.32 9 13.57 5.9 1.25 11.87-4.68 12.73-10.13.94-5.93-2.7-8.53-9.62-9.62z" style="fill:url(#a);stroke:url(#i);stroke-opacity:1;stroke-width:4;stroke-dasharray:none"/><linearGradient id="j" x1="10" x2="42" y1="32" y2="32" gradientUnits="userSpaceOnUse"><stop offset="0" stop-color="#e1e1e1"/><stop offset=".25" stop-color="#fff"/><stop offset="1" stop-color="#cdcdcd"/></linearGradient><path d="M25.55 32.12c-6.91-1.09-11.17.26-12.11 6.18-.86 5.46 3.09 12.32 9 13.57 5.9 1.25 11.87-4.68 12.73-10.13.94-5.93-2.7-8.53-9.62-9.62" style="fill:url(#j)"/><path d="m49 25 10-13m-10 0 10 13m-12-7h14" style="fill:none;stroke:#000100;stroke-width:3;stroke-linecap:round" transform="translate(-30 23)"/><path d="M10 18c0-5.53 7.16-10 16-10 8.83 0 16 4.47 16 10 0 5.52-7.17 10-16 10-8.84 0-16-4.48-16-10" style="fill:#000100" transform="matrix(.2499 0 0 .6999 17.5 29.4)"/><linearGradient id="k" x1="10" x2="42" y1="32" y2="32" gradientUnits="userSpaceOnUse"><stop offset="0" stop-color="#ff0606"/><stop offset=".242" stop-color="#ff4706"/><stop offset="1" stop-color="#d60505"/></linearGradient><path d="M15 47s4.15-1.46 8.8-3.84C30 40 33 36 33 36" style="fill:none;stroke:url(#k);stroke-width:3;stroke-linecap:round"/></svg>