<svg xmlns="http://www.w3.org/2000/svg" width="64" height="64" color-interpolation="linearRGB"><path d="M32 62h8l4 2 17-21-5.2-2.6L60 38l-8-1z" style="fill:#000;fill-opacity:.396"/><path d="M10 39v10l22 11 18-18v-6" style="fill:none;stroke:#000;stroke-width:4;stroke-linejoin:round"/><linearGradient id="a" x1="46.07" x2="23.93" y1="78.24" y2="73.15" gradientUnits="userSpaceOnUse"><stop offset="0" stop-color="#a3784b"/><stop offset="1" stop-color="#76401c"/></linearGradient><path d="m32 38 18-18v22L32 60z" style="fill:url(#a)"/><path d="M32 38h10L32 48z" style="fill:#5d2b0c"/><linearGradient id="b" x1="44.47" x2="29.89" y1="70.75" y2="79.36" gradientUnits="userSpaceOnUse"><stop offset="0" stop-color="#be8852"/><stop offset="1" stop-color="#dca977"/></linearGradient><path d="M11.89 36.01 14 46l18 9v5L10 49V35.99z" style="fill:url(#b)"/><linearGradient id="c" x1="54.08" x2="50.66" y1="49.54" y2="59.95" gradientUnits="userSpaceOnUse"><stop offset="0" stop-color="#7c4e28"/><stop offset="1" stop-color="#a17545"/></linearGradient><path d="M32 38v17l-18-9-2.11-9.99z" style="fill:url(#c)"/><path d="M24 46 2 35l8-8H2l22-13h6l7-8 17 6-4 11 12 3-18 18-12-6z" style="fill:none;stroke:#000;stroke-width:4;stroke-linejoin:round"/><linearGradient id="d" x1="44.25" x2="55.01" y1="2.48" y2="17.28" gradientUnits="userSpaceOnUse"><stop offset="0" stop-color="#663200"/><stop offset="1" stop-color="#834f1c"/></linearGradient><path d="m10 27 20-13v19l-6.11 4.88L10 30.99z" style="fill:url(#d)"/><linearGradient id="e" x1="42.68" x2="61.51" y1="-29.81" y2="-25.25" gradientUnits="userSpaceOnUse"><stop offset="0" stop-color="#e5b07b"/><stop offset="1" stop-color="#ffce9e"/></linearGradient><path d="m30 14 4 16 16 7V22z" style="fill:url(#e)"/><path d="m30 14 4 16 16 7-8.15 1.33L30 33z" style="fill:#945f2c"/><path d="m30 33-6.11 4.88L32 38l4.1-2.26z" style="fill:#85501c"/><linearGradient id="f" x1="32.24" x2="49.83" y1="-14.37" y2="-16.21" gradientUnits="userSpaceOnUse"><stop offset="0" stop-color="#fccc9d"/><stop offset="1" stop-color="#eeb781"/></linearGradient><path d="m37 6 17 6-4 11-20-9z" style="fill:url(#f)"/><path d="m2 27 22-13h6L10 27z" style="fill:#ffdcba"/><path d="M18 14v16l16 8 10-10V12L29 6z" style="fill:none;stroke:#000;stroke-width:4" transform="translate(5.172 20.125)scale(.5517)"/><linearGradient id="g" x1="26.68" x2="34.48" y1="46.52" y2="36.39" gradientUnits="userSpaceOnUse"><stop offset="0" stop-color="#c6d7f5"/><stop offset="1" stop-color="#6b94dd"/></linearGradient><path d="M18 14v16l16 8V21z" style="fill:url(#g)" transform="translate(5.172 20.125)scale(.5517)"/><path d="M34 21v17l10-10V12z" style="fill:#003cb0" transform="translate(5.172 20.125)scale(.5517)"/><path d="m24 34 4 11v-9z" style="fill:#0d2964" transform="translate(14 9.643)scale(.5517)"/><linearGradient id="h" x1="26.68" x2="34.48" y1="46.52" y2="36.39" gradientUnits="userSpaceOnUse"><stop offset="0" stop-color="#c6d7f5"/><stop offset="1" stop-color="#6b94dd"/></linearGradient><path d="m2 34 16 7 10-9-15-6z" style="fill:url(#h)" transform="translate(14 9.09)scale(.5517)"/><path d="M18 14v16l16 8 10-10V12L29 6z" style="fill:none;stroke:#000;stroke-width:4" transform="translate(20.62 20.125)scale(.5517)"/><path d="m34 43-.01 8.99L46 58V41l-4.93-2.16z" style="fill:#ec6666" transform="translate(14 9.09)scale(.5517)"/><path d="M30 34v16l3.99 1.99L34 43l7.07-4.16z" style="fill:#cd4d4d" transform="translate(14 9.09)scale(.5517)"/><linearGradient id="i" x1="70.4" x2="71.08" y1="34.52" y2="50.83" gradientUnits="userSpaceOnUse"><stop offset="0" stop-color="#a3043c"/><stop offset="1" stop-color="#ffdce6"/></linearGradient><path d="M34 21v17l10-10V12z" style="fill:url(#i)" transform="translate(20.62 20.125)scale(.5517)"/><path d="M41.07 38.84 46 41l10-9-5.01-2.01z" style="fill:#ffacac" transform="translate(14 9.09)scale(.5517)"/><linearGradient id="j" x1="138.84" x2="86.24" y1="49.93" y2="116.1" gradientUnits="userSpaceOnUse"><stop offset="0" stop-color="#c13e3e"/><stop offset="1" stop-color="#e27a7a"/></linearGradient><path d="m30 34 11.07 4.84 9.92-8.85L41 26z" style="fill:url(#j)" transform="translate(14 9.09)scale(.5517)"/><path d="M18 14v16l16 8 10-10V12L29 6z" style="fill:none;stroke:#000;stroke-width:4" transform="translate(14 9.09)scale(.5517)"/><linearGradient id="k" x1="-19.87" x2="5.48" y1="-1.53" y2="-26.29" gradientUnits="userSpaceOnUse"><stop offset="0" stop-color="#ffec4b"/><stop offset="1" stop-color="#f0a506"/></linearGradient><path d="M18 14v16l16 8V21z" style="fill:url(#k)" transform="translate(14 9.09)scale(.5517)"/><linearGradient id="l" x1="30.5" x2="56.01" y1="-22.81" y2="-9.13" gradientUnits="userSpaceOnUse"><stop offset="0" stop-color="#fff"/><stop offset="1" stop-color="#fff289"/></linearGradient><path d="m18 14 16 7 10-9-15-6z" style="fill:url(#l)" transform="translate(14 9.09)scale(.5517)"/><linearGradient id="m" x1="53.01" x2="69.94" y1="-9.55" y2="3.43" gradientUnits="userSpaceOnUse"><stop offset="0" stop-color="#f99b05"/><stop offset="1" stop-color="#fcb23d"/></linearGradient><path d="M34 21v17l10-10V12z" style="fill:url(#m)" transform="translate(14 9.09)scale(.5517)"/><linearGradient id="n" x1="43.44" x2="62.48" y1="10.75" y2="20.22" gradientUnits="userSpaceOnUse"><stop offset="0" stop-color="#ffd5ac"/><stop offset="1" stop-color="#b07842"/></linearGradient><path d="m32 38 18-15 12 3-18 18z" style="fill:url(#n)"/><linearGradient id="o" x1="1.22" x2="44.89" y1="-19.6" y2="-14.22" gradientUnits="userSpaceOnUse"><stop offset="0" stop-color="#ffe3c7"/><stop offset="1" stop-color="#f3b476"/></linearGradient><path d="m2 35 22 11 8-8-22-11z" style="fill:url(#o)"/></svg>