<svg xmlns="http://www.w3.org/2000/svg" width="64" height="64" color-interpolation="linearRGB"><path d="M38 40c-12.16 0-22 5.37-22 12 0 0 9.84 12 22 12 12.14 0 22-5.39 22-12 0-6.63-9.86-12-22-12" style="fill:#010101;fill-opacity:.4078"/><linearGradient id="a" x1="52" x2="68" y1="-64" y2="-64" gradientUnits="userSpaceOnUse"><stop offset="0" stop-color="#010000"/><stop offset="1" stop-color="#010000" stop-opacity="0"/></linearGradient><path d="M44 44s5.51-6 10-6c4 0 2 8 10 4" style="fill:none;stroke:url(#a);stroke-width:4"/><path d="M28 34s-5 14-14 15v3l20 10 14-14-3-14z" style="fill:none;stroke:#010000;stroke-width:4"/><linearGradient id="b" x1="41.67" x2="71.92" y1="-9.73" y2="-3.5" gradientUnits="userSpaceOnUse"><stop offset="0" stop-color="#5c5c5c"/><stop offset="1" stop-color="#b8b8b8"/></linearGradient><path d="M34 36v26l14-14-3-14z" style="fill:url(#b)"/><linearGradient id="c" x1="14.26" x2="-8.94" y1="97.46" y2="81.76" gradientUnits="userSpaceOnUse"><stop offset="0" stop-color="#c9c9c9"/><stop offset="1" stop-color="#fff"/></linearGradient><path d="m14 52 20 10v-4l-20-9z" style="fill:url(#c)"/><linearGradient id="d" x1="51.94" x2="26.51" y1="63.65" y2="73.34" gradientUnits="userSpaceOnUse"><stop offset="0" stop-color="#797979"/><stop offset="1" stop-color="#e4e4e4"/></linearGradient><path d="M34 58c7-7 6-19 6-19l-12-5s-5 14-14 15z" style="fill:url(#d)"/><path d="M30 2c-11.05 0-20 8.95-20 20 0 11.03 8.95 20 20 20 11.03 0 20-8.97 20-20 0-11.05-8.97-20-20-20z" style="fill:none;stroke:#010000;stroke-width:4"/><radialGradient id="e" cx="0" cy="0" r="64" gradientTransform="matrix(.373 .2924 -.3363 .4291 25.29 16.142)" gradientUnits="userSpaceOnUse"><stop offset=".165" stop-color="#fff"/><stop offset=".769" stop-color="#959191"/><stop offset="1" stop-color="#b9b9b9"/></radialGradient><path d="M30 2c-11.05 0-20 8.95-20 20 0 11.03 8.95 20 20 20 11.03 0 20-8.97 20-20 0-11.05-8.97-20-20-20" style="fill:url(#e)"/><linearGradient id="f" x1="-6" x2="38" y1="-4" y2="-4" gradientUnits="userSpaceOnUse"><stop offset=".251" stop-color="#010101"/><stop offset="1" stop-color="#c1acac"/></linearGradient><path d="M12.25 43.25c-2.42 2.35-1.64 7.06 1.74 10.51 3.36 3.47 8.04 4.34 10.47 1.99 2.41-2.34 1.63-7.05-1.73-10.51-3.37-3.45-8.06-4.33-10.48-1.99z" style="fill:none;stroke:url(#f);stroke-width:4" transform="matrix(.9846 .4347 -.4379 .9773 24.683 -30.294)"/><radialGradient id="g" cx="0" cy="0" r="64" gradientTransform="matrix(.1345 .0871 -.0673 .1039 20.705 50.736)" gradientUnits="userSpaceOnUse"><stop offset="0" stop-color="#434a68"/><stop offset="1" stop-color="#0f1238"/></radialGradient><path d="M12.25 43.25c-2.42 2.35-1.64 7.06 1.74 10.51 3.36 3.47 8.04 4.34 10.47 1.99 2.41-2.34 1.63-7.05-1.73-10.51-3.37-3.45-8.06-4.33-10.48-1.99" style="fill:url(#g)" transform="matrix(.9846 .4347 -.4379 .9773 26.838 -30.294)"/><path d="M12.25 43.25c-2.42 2.35-1.64 7.06 1.74 10.51 3.36 3.47 8.04 4.34 10.47 1.99 2.41-2.34 1.63-7.05-1.73-10.51-3.37-3.45-8.06-4.33-10.48-1.99" style="fill:#fff" transform="matrix(-.0781 .1744 -.1757 -.0775 31.659 20.954)"/><path d="M19 53s3.24.24 4.24-.76S24 49 24 49s.87 3.1-.13 4.1S19 53 19 53" style="fill:#fff" transform="matrix(.9846 .4347 -.4379 .9773 26.838 -30.294)"/></svg>