<svg xmlns="http://www.w3.org/2000/svg" width="64" height="64" color-interpolation="linearRGB"><path d="M34 64h11c5 0 6-1 11-2 7.84-1.57 7-4 4-6-3.44-2.29 2.56-1.87 1-5-1-2-9-4-9-4l-10 9z" style="fill:#010101;fill-opacity:.4235"/><path d="M22 21v17l2 2v17l4 2h2v1l4 2 6-6V42l2-2V23l-13-6z" style="fill:none;stroke:#000;stroke-width:4" transform="translate(10 -6)"/><linearGradient id="a" x1="96.6" x2="124.61" y1="-47.07" y2="-15.05" gradientUnits="userSpaceOnUse"><stop offset="0" stop-color="#ee9bb0"/><stop offset="1" stop-color="#cc5876"/></linearGradient><path d="M22 21v16l2 3v17l4 2h2v1l4 2V45h2V27z" style="fill:url(#a)" transform="translate(10 -6)"/><linearGradient id="b" x1="-37.97" x2="-18.83" y1="-32.98" y2="-50.95" gradientUnits="userSpaceOnUse"><stop offset="0" stop-color="#ffe3ea"/><stop offset=".996" stop-color="#f0a8bb"/></linearGradient><path d="m22 21 14 6 6-4-10-1 3.99-2.01L29 17z" style="fill:url(#b)" transform="translate(10 -6)"/><linearGradient id="c" x1="57.23" x2="78.84" y1="-50.61" y2="-43.97" gradientUnits="userSpaceOnUse"><stop offset="0" stop-color="#a02646"/><stop offset="1" stop-color="#d53961"/></linearGradient><path d="M36 45h-2v17l6-6V42l2-2V23l-6 4z" style="fill:url(#c)" transform="translate(10 -6)"/><path d="M34 45v6l6-9-4 3z" style="fill:#71152d" transform="translate(10 -6)"/><linearGradient id="d" x1="30.92" x2="41.07" y1="-67" y2="-67" gradientUnits="userSpaceOnUse"><stop offset="0" stop-color="#ab123a"/><stop offset="1" stop-color="#dd718d"/></linearGradient><path d="m32 22 10 1-6-3z" style="fill:url(#d)" transform="translate(10 -6)"/><path d="M31 10c-2.5 0-5 2.5-5 5s2.5 5 5 5 5-2.5 5-5-2.5-5-5-5z" style="fill:none;stroke:#000;stroke-width:4" transform="translate(12 -6)"/><radialGradient id="e" cx="0" cy="0" r="64" gradientTransform="matrix(.1707 0 0 .1694 30.553 12.474)" gradientUnits="userSpaceOnUse"><stop offset="0" stop-color="#f2f2f2"/><stop offset=".674" stop-color="#7d7a7a"/><stop offset="1" stop-color="#bca184"/></radialGradient><path d="M31 10c-2.5 0-5 2.5-5 5s2.5 5 5 5 5-2.5 5-5-2.5-5-5-5" style="fill:url(#e)" transform="translate(12 -6)"/><path d="M22 21v17l2 2v17l4 2h2v1l4 2 6-6V42l2-2V23l-13-6z" style="fill:none;stroke:#000;stroke-width:4" transform="translate(-16 -6)"/><linearGradient id="f" x1="85.74" x2="128.61" y1="-57.07" y2="-8.05" gradientUnits="userSpaceOnUse"><stop offset="0" stop-color="#d5dcff"/><stop offset="1" stop-color="#9d9bd5"/></linearGradient><path d="M22 21v16l2 3v17l4 2h2v1l4 2V45h2V27z" style="fill:url(#f)" transform="translate(-16 -6)"/><linearGradient id="g" x1="-37.97" x2="-18.83" y1="-32.98" y2="-50.95" gradientUnits="userSpaceOnUse"><stop offset="0" stop-color="#fff"/><stop offset=".996" stop-color="#a4a3d7"/></linearGradient><path d="m22 21 14 6 6-4-10-1 3.99-2.01L29 17z" style="fill:url(#g)" transform="translate(-16 -6)"/><linearGradient id="h" x1="56.23" x2="77.84" y1="-51.61" y2="-44.97" gradientUnits="userSpaceOnUse"><stop offset="0" stop-color="#373583"/><stop offset="1" stop-color="#6967c0"/></linearGradient><path d="M36 45h-2v17l6-6V42l2-2V23l-6 4z" style="fill:url(#h)" transform="translate(-16 -6)"/><path d="M34 45v6l6-9-4 3z" style="fill:#252382" transform="translate(-16 -6)"/><linearGradient id="i" x1="30.92" x2="41.07" y1="-66" y2="-66" gradientUnits="userSpaceOnUse"><stop offset="0" stop-color="#33318c"/><stop offset="1" stop-color="#a4a3d7"/></linearGradient><path d="m32 22 10 1-6-3z" style="fill:url(#i)" transform="translate(-16 -6)"/><path d="M31 10c-2.5 0-5 2.5-5 5s2.5 5 5 5 5-2.5 5-5-2.5-5-5-5z" style="fill:none;stroke:#000;stroke-width:4" transform="translate(-16 -6)"/><radialGradient id="j" cx="0" cy="0" r="64" gradientTransform="matrix(.1707 0 0 .1694 30.553 12.474)" gradientUnits="userSpaceOnUse"><stop offset="0" stop-color="#f2f2f2"/><stop offset=".674" stop-color="#7d7a7a"/><stop offset="1" stop-color="#bca184"/></radialGradient><path d="M31 10c-2.5 0-5 2.5-5 5s2.5 5 5 5 5-2.5 5-5-2.5-5-5-5" style="fill:url(#j)" transform="translate(-16 -6)"/><linearGradient id="k" x1="56.23" x2="77.84" y1="-51.61" y2="-44.97" gradientUnits="userSpaceOnUse"><stop offset="0" stop-color="#373583"/><stop offset="1" stop-color="#6967c0"/></linearGradient><path d="M28 59h2V45l-2-1z" style="fill:url(#k)" transform="translate(-16 -6)"/><path d="M22 21v17l2 2v17l4 2h2v1l4 2 6-6V42l2-2V23l-13-6z" style="fill:none;stroke:#000;stroke-width:4"/><linearGradient id="l" x1="85.74" x2="128.61" y1="-57.07" y2="-8.05" gradientUnits="userSpaceOnUse"><stop offset="0" stop-color="#ffdb97"/><stop offset="1" stop-color="#fcaf29"/></linearGradient><path d="M22 21v16l2 3v17l4 2h2v1l4 2V45h2V27z" style="fill:url(#l)"/><linearGradient id="m" x1="-37.97" x2="-18.83" y1="-32.98" y2="-50.95" gradientUnits="userSpaceOnUse"><stop offset="0" stop-color="#fff7ea"/><stop offset=".996" stop-color="#fdd17b"/></linearGradient><path d="m22 21 14 6 6-4-10-1 3.99-2.01L29 17z" style="fill:url(#m)"/><linearGradient id="n" x1="55.23" x2="76.84" y1="-51.61" y2="-44.97" gradientUnits="userSpaceOnUse"><stop offset="0" stop-color="#c85805"/><stop offset="1" stop-color="#f06306"/></linearGradient><path d="M36 45h-2v17l6-6V42l2-2V23l-6 4z" style="fill:url(#n)"/><path d="M34 45v6l6-9-4 3z" style="fill:#a32904"/><linearGradient id="o" x1="29.92" x2="40.07" y1="-66" y2="-66" gradientUnits="userSpaceOnUse"><stop offset="0" stop-color="#c85804"/><stop offset="1" stop-color="#dc952f"/></linearGradient><path d="m32 22 10 1-6-3z" style="fill:url(#o)"/><path d="M32 8c-3 0-6 3-6 6s3 6 6 6 6-3 6-6-3-6-6-6z" style="fill:none;stroke:#000;stroke-width:4"/><radialGradient id="p" cx="0" cy="0" r="64" gradientTransform="matrix(.1707 0 0 .1694 30.553 12.474)" gradientUnits="userSpaceOnUse"><stop offset="0" stop-color="#f2f2f2"/><stop offset=".674" stop-color="#7d7a7a"/><stop offset="1" stop-color="#bca184"/></radialGradient><path d="M32 8c-3 0-6 3-6 6s3 6 6 6 6-3 6-6-3-6-6-6" style="fill:url(#p)"/><linearGradient id="q" x1="55.23" x2="76.84" y1="-51.61" y2="-44.97" gradientUnits="userSpaceOnUse"><stop offset="0" stop-color="#c85805"/><stop offset="1" stop-color="#f06306"/></linearGradient><path d="M28 59h2V45l-2-1z" style="fill:url(#q)"/></svg>