<svg xmlns="http://www.w3.org/2000/svg" width="64" height="64" color-interpolation="linearRGB"><path d="M25 64h3l10-10h6c2 0 5-1 7-3 .53-.54 5.37-5 5.37-5H59l4-6-1.5-1c2-3 2.5-4 2.5-7s-2-4-4-5z" style="fill:#000;fill-opacity:.4156"/><path d="M58 32V20c0-9-3-14-12-17-5-2-9-1-15 2l-17 8c-2.24 2.04-4 5.72-3.99 9.98L10 41l2 1-10 7 23 13 10-10 1.98 1.01z" style="fill:none;stroke:#000;stroke-width:4;stroke-linejoin:round"/><linearGradient id="a" x1="88.51" x2="125.88" y1="-66.76" y2="-12.97" gradientUnits="userSpaceOnUse"><stop offset=".289" stop-color="#5f8493"/><stop offset=".523" stop-color="#eaf7ff"/><stop offset=".639" stop-color="#a5b7c2"/><stop offset=".763" stop-color="#a0bccc"/><stop offset=".865" stop-color="#748994"/><stop offset="1" stop-color="#829ab2"/></linearGradient><path d="M58 32V20c0-9-3-14-12-17-5-2-9-1-15 2l-17 8 22 24v17z" style="fill:url(#a)"/><linearGradient id="b" x1="33.05" x2="62.02" y1="-13.06" y2="15.9" gradientUnits="userSpaceOnUse"><stop offset="0" stop-color="#acd3db"/><stop offset=".624" stop-color="#fff"/><stop offset="1" stop-color="#6492a8"/></linearGradient><path d="M38 39c1.07-11.01-1.52-21.76-10-26-4-2-8-2-13 0 5 0 7 0 10 2 7.11 4.73 12 12 13 24" style="fill:url(#b)"/><path d="M36 54V38c0-9-2.37-18.19-12-23-4.23-2.12-8-2-11 0" style="fill:none;stroke:#000;stroke-width:4"/><linearGradient id="c" x1="-9.25" x2="8.06" y1="2.93" y2="-8.88" gradientUnits="userSpaceOnUse"><stop offset="0" stop-color="#f7fbfd"/><stop offset="1" stop-color="#31596b"/></linearGradient><path d="M24 15c-9.94-4.98-14 1-13.99 10.98L10 41l1-15c0-10 3-16 13-11h.01z" style="fill:url(#c)"/><linearGradient id="d" x1="66.96" x2="47.68" y1="38.95" y2="61.3" gradientUnits="userSpaceOnUse"><stop offset="0" stop-color="#343d41"/><stop offset=".188" stop-color="#364145"/><stop offset="1" stop-color="#566f7a"/></linearGradient><path d="M24 15c-9.94-4.98-13 1-12.99 10.98L11 41l23.46-14.05C32.63 21.6 29.15 17.57 24.01 15z" style="fill:url(#d)"/><linearGradient id="e" x1="3.3" x2="29.74" y1="28.06" y2="7.36" gradientUnits="userSpaceOnUse"><stop offset="0" stop-color="#435563"/><stop offset="1" stop-color="#2d4048"/></linearGradient><path d="M12 42s15-1 24 3v-8c-.02-3.74-.53-7.1-1.54-10.05L10 41z" style="fill:url(#e)"/><linearGradient id="f" x1="-7.32" x2="-4.14" y1="52.74" y2="33.48" gradientUnits="userSpaceOnUse"><stop offset="0" stop-color="#bed1db"/><stop offset="1" stop-color="#8dadba"/></linearGradient><path d="M36 45v7.5l-1-.5-10 10L2 49l10-7s15-1 24 3" style="fill:url(#f)"/><path d="m15 44-7 5 11 7 15-12z" style="fill:#7795a3"/><path d="M11.86 29.98 3 35l15 17 13.85-10.01S29 39 24 36s-12.14-6.02-12.14-6.02zM36 34 26 22l-14.14 7.98S19 33 24 36s7.85 5.99 7.85 5.99L36 39z" style="fill:none;stroke:#000;stroke-width:4"/><linearGradient id="g" x1="25.01" x2="41.57" y1="14.97" y2="33.52" gradientUnits="userSpaceOnUse"><stop offset="0" stop-color="#ffeec0"/><stop offset="1" stop-color="#e7d6a8"/></linearGradient><path d="M11.86 29.98 3 35l15 17 13.85-10.01S29 39 24 36s-12.14-6.02-12.14-6.02" style="fill:url(#g)"/><linearGradient id="h" x1="1.65" x2="13.11" y1="13.86" y2="4.28" gradientUnits="userSpaceOnUse"><stop offset="0" stop-color="#b4a06b"/><stop offset="1" stop-color="#a28b4e"/></linearGradient><path d="M36 34 26 22l-14.14 7.98S19 33 24 36s7.85 5.99 7.85 5.99L36 39z" style="fill:url(#h)"/><path d="M3 35s7.73 2.44 14 3.41L18 51l.65-12.37c2.83.32 5.13.23 5.92-.71.47-.56.79-2.27 1-4.38L36 36l-10.31-3.9C26.04 27.52 26 22 26 22s-1 12-3 14-20-1-20-1" style="fill:#826a31"/><path d="M44 7v24l2 1 1-1V18l7-6V3l-2-1z" style="fill:none;stroke:#000;stroke-width:4"/><path d="M46 17.99V8l8-5v9l-6 5z" style="fill:#f20606"/><linearGradient id="i" x1="76.17" x2="76.55" y1="3.07" y2="31.1" gradientUnits="userSpaceOnUse"><stop offset="0" stop-color="#ffc7ba"/><stop offset="1" stop-color="#c31a1a"/></linearGradient><path d="M44 16.88V7l2 1v9.88z" style="fill:url(#i)"/><path d="m44 7 2 1 8-5-2-1z" style="fill:#faa28e"/><linearGradient id="j" x1="76.17" x2="76.55" y1="3.07" y2="31.1" gradientUnits="userSpaceOnUse"><stop offset=".007" stop-color="#e3e3e3"/><stop offset="1" stop-color="#59697a"/></linearGradient><path d="M46 32V17.99l1 .01v13z" style="fill:url(#j)"/><linearGradient id="k" x1="75.17" x2="75.55" y1="4.07" y2="32.1" gradientUnits="userSpaceOnUse"><stop offset="0" stop-color="#d6d9dc"/><stop offset="1" stop-color="#788999"/></linearGradient><path d="m46 32-2-1V16.99l2 1.14z" style="fill:url(#k)"/></svg>