<svg xmlns="http://www.w3.org/2000/svg" width="64" height="64" color-interpolation="linearRGB"><path d="M36 61h5l23-31-6-3 1 4z" style="fill:#010101;fill-opacity:.5019"/><path d="M2 28v13l34 18 22-29V17L25 5z" style="fill:none;stroke:#010000;stroke-width:4"/><linearGradient id="a" x1="13.84" x2="58.34" y1="-38.14" y2="-27.7" gradientUnits="userSpaceOnUse"><stop offset="0" stop-color="#fff"/><stop offset="1" stop-color="#d3d3d3"/></linearGradient><path d="m2 28 34 15 22-26L25 5z" style="fill:url(#a)"/><linearGradient id="b" x1="44.72" x2="86.1" y1="-7.9" y2="10.51" gradientUnits="userSpaceOnUse"><stop offset="0" stop-color="#474747"/><stop offset="1" stop-color="#a5a0a0"/></linearGradient><path d="M36 43v16l22-29V17z" style="fill:url(#b)"/><linearGradient id="c" x1="22.97" x2="-14.6" y1="92.59" y2="67.29" gradientUnits="userSpaceOnUse"><stop offset="0" stop-color="#7d7d7d"/><stop offset="1" stop-color="#d4d4d4"/></linearGradient><path d="M2 28v13l34 18V43z" style="fill:url(#c)"/><linearGradient id="d" x1="32.05" x2="43.48" y1="9.68" y2="24.05" gradientUnits="userSpaceOnUse"><stop offset="0" stop-color="#596756"/><stop offset="1" stop-color="#ebb2b2"/></linearGradient><path d="m7 35 5.75 2.5" style="fill:none;stroke:url(#d);stroke-width:5;stroke-linecap:round"/><path d="m6 35 3 1" style="fill:none;stroke:red;stroke-width:2" transform="translate(4 1.5)"/><path d="m6 35 3 1" style="fill:none;stroke:#a7ff00;stroke-width:2" transform="translate(0 -.25)"/></svg>