<svg xmlns="http://www.w3.org/2000/svg" xml:space="preserve" width="64" height="64" color-interpolation="linearRGB"><g style="color-interpolation:linearRGB" transform="matrix(1.5 0 0 1.5 -16 -16)"><path d="m22 24-8 6 15 16 13-6 7-7-8-2V18l-12-3-7 5z" style="fill:none;stroke:#010000;stroke-width:4"/><linearGradient id="a" x1="13" x2="47" y1="-20" y2="-20" gradientUnits="userSpaceOnUse"><stop offset="0" stop-color="#eeffac"/><stop offset="1" stop-color="#d5e68f"/></linearGradient><path d="m21 25-7 5 8.04 2.87 2-7z" style="fill:url(#a)"/><linearGradient id="b" x1="13" x2="47" y1="-20" y2="-20" gradientUnits="userSpaceOnUse"><stop offset="0" stop-color="#eeffac"/><stop offset="1" stop-color="#d5e68f"/></linearGradient><path d="m42 40 7-7-15 1 .04 3.15z" style="fill:url(#b)"/><path d="m41 37 8-4-8.16-2.34L34 32l.04 5.15z" style="fill:#b4d339"/><linearGradient id="c" x1="46.93" x2="67.71" y1="-1.38" y2="15" gradientUnits="userSpaceOnUse"><stop offset="0" stop-color="#4c5e02"/><stop offset="1" stop-color="#698303"/></linearGradient><path d="m34 23-2 3v12h2l7-7V18Z" style="fill:url(#c)"/><linearGradient id="d" x1="54.4" x2="72.74" y1="-7.28" y2="22.81" gradientUnits="userSpaceOnUse"><stop offset="0" stop-color="#97e306"/><stop offset="1" stop-color="#81a104"/></linearGradient><path d="m42 40-13 6-15-16 8.04 2.87L22 20l12 3 .04 14.15z" style="fill:url(#d)"/><linearGradient id="e" x1="13" x2="47" y1="-20" y2="-20" gradientUnits="userSpaceOnUse"><stop offset="0" stop-color="#eeffac"/><stop offset="1" stop-color="#d5e68f"/></linearGradient><path d="m22 20 12 4 7-6-12-3z" style="fill:url(#e)"/></g><g style="display:inline"><path d="M15 36s-4 4-4 11c-2-4-7-5-7-5s-1 6 5 9c0 0 0 1-6 1 0 0 3 6 11 4v4h2v-4c8 2 11-4 11-4-6 0-6-1-6-1 6-3 5-9 5-9s-5 1-7 5c0-7-4-11-4-11z" style="fill:none;stroke:#000;stroke-width:4"/><radialGradient id="f" cx="0" cy="0" r="64" gradientTransform="matrix(.0874 -.379 .4747 .1095 8.15 41.589)" gradientUnits="userSpaceOnUse"><stop offset="0" stop-color="#ffb11b"/><stop offset="1" stop-color="#fff9c7"/></radialGradient><path d="M15 36s-4 4-4 11c-2-4-7-5-7-5s-1 6 5 9c0 0 0 1-6 1 0 0 3 6 11 4v4h2v-4c8 2 11-4 11-4-6 0-6-1-6-1 6-3 5-9 5-9s-5 1-7 5c0-7-4-11-4-11" style="fill:url(#f)"/></g></svg>