<svg xmlns="http://www.w3.org/2000/svg" width="64" height="64" color-interpolation="linearRGB"><path d="m27 57 2 2 3.13-3.17L37 59l8.39-11.46L64 38l-5-3 2 2-25 12zm31-23 4-3-4-2-3 3z" style="fill:#010101;fill-opacity:.5725" transform="translate(0 3)"/><path d="M6.25 30s5.62 6 10.62 12.5 9.38 13.25 9.38 13.25l32.87-18.88L32 15z" style="fill:none;stroke:#010101;stroke-width:4" transform="translate(0 3)"/><radialGradient id="a" cx="0" cy="0" r="64" gradientTransform="matrix(.5714 0 0 .3333 26 35)" gradientUnits="userSpaceOnUse"><stop offset=".489" stop-color="#f1b706"/><stop offset="1" stop-color="#fffcc0"/></radialGradient><path d="M6.25 30s5.62 6 10.62 12.5 9.38 13.25 9.38 13.25l32.87-18.88L32 15z" style="fill:url(#a)" transform="translate(0 3)"/><path d="M2.62 30.87s8.33 5.39 16.38 11c8.44 5.88 16.75 10.88 16.75 10.88l22.37-26.38s-12.68-5.67-22.75-11c-5.19-2.75-9.37-6-9.37-6z" style="fill:none;stroke:#010101;stroke-width:4" transform="translate(0 3)"/><linearGradient id="b" x1="107.04" x2="118.33" y1="-17.09" y2="27.99" gradientUnits="userSpaceOnUse"><stop offset="0" stop-color="#ffefa5"/><stop offset=".742" stop-color="#fffcc0"/><stop offset="1" stop-color="#fff890"/></linearGradient><path d="M2.62 30.87s8.33 5.39 16.38 11c8.44 5.88 16.75 10.88 16.75 10.88l22.37-26.38s-12.68-5.67-22.75-11c-5.19-2.75-9.37-6-9.37-6z" style="fill:url(#b)" transform="translate(0 3)"/><linearGradient id="c" x1="-47.14" x2="-28.46" y1="-15.78" y2="-37.85" gradientUnits="userSpaceOnUse"><stop offset="0" stop-color="#010101"/><stop offset="1" stop-color="#9e9e9e"/></linearGradient><path d="m20 36 14.87-15.13M14 32l12.87-13M26 40l12.75-13.13M32 44l10.75-11.63" style="fill:none;stroke:url(#c);stroke-width:1" transform="translate(0 3)"/><linearGradient id="d" x1="-47.14" x2="-28.46" y1="-15.78" y2="-37.85" gradientUnits="userSpaceOnUse"><stop offset="0" stop-color="#010101"/><stop offset="1" stop-color="#9e9e9e"/></linearGradient><path d="m29 42 15-15.63M23 38l11.75-11.75M17 34l11.12-11.38" style="fill:none;stroke:url(#d);stroke-width:1" transform="translate(0 3)"/><path d="M32.02 1.91c10.01 0 18.12 8.11 18.12 18.12s-8.11 18.12-18.12 18.12S13.9 30.04 13.9 20.03 22.01 1.91 32.02 1.91z" style="fill:none;stroke:#010101;stroke-width:4"/><radialGradient id="e" cx="0" cy="0" r="64" gradientTransform="matrix(.3803 0 0 -.3803 23.532 21.015)" gradientUnits="userSpaceOnUse"><stop offset=".193" stop-color="#3ff"/><stop offset=".788" stop-color="#06f"/><stop offset="1" stop-color="#0034cc"/></radialGradient><path d="M32.02 1.91c10.01 0 18.12 8.11 18.12 18.12s-8.11 18.12-18.12 18.12S13.9 30.04 13.9 20.03 22.01 1.91 32.02 1.91" style="fill:url(#e)"/><radialGradient id="f" cx="0" cy="0" r="64" gradientTransform="matrix(.3803 0 0 -.3803 23.532 17.015)" gradientUnits="userSpaceOnUse"><stop offset=".33" stop-color="#09b4b6"/><stop offset=".85" stop-color="#033784"/><stop offset="1" stop-color="#051d61"/></radialGradient><path d="M47.33 10.33C44.65 6.1 40.23 3.11 35.3 2.2c-1.08-.19-2.18-.29-3.28-.29-5.08 0-10.01 2.18-13.42 5.95a18.22 18.22 0 0 0-4.51 14.77c.41 2.49.66 3.24 1.32 4.65 1.82 4.16 5.22 7.55 9.38 9.37 4.75 2.07 10.3 1.98 14.98-.24-.19-.87-.93-.9-1.66-.97h-.08l.26.06c-.58-.13-1.11.13-1.65.29-.63.19-1.29.1-1.93.03-1.29-.15-2.87-.4-3.94.52h-3.34c-.52-.37-1.01-.47-1.48-.51-.03-.03-.24-.27-.24-.27-.13-.15-.24-.24-.42-.3l-1.09-.37-1.13-.42c-.1-.03-.2-.04-.3-.05-.02-.04-.01-.09-.04-.13l-.25-.39c-.33-.58-.7-1.16-1.39-1.3.09-.38-.04-.7-.15-1.06-.12-.39-.15-.81-.13-1.22l.03-.36c.04-.51.07-1.01-.01-1.51.8-.89.98-1.8.91-2.97l-.02-.43c0-.63 0-.71.2-.98l.11-.14c.56-.74 1.45-2.23.27-2.88l-2.94-1.6s-.38-.17-.43-.2v-.02c-.02-.86-.32-1.46-1.01-1.97l-.18-.13c0-.01-.25-.34-.25-.34l-.73-.87c-.47-.44-.91-.58-1.31-.61-.03-.08-.08-.16-.13-.23 1.03-.43 1.51-1.58 1.91-2.54.24-.57.44-1.18.87-1.64.39-.43.75-.8.65-1.43.82-.32 1.57-.74 2.28-1.16l.1-.06 1.44-.89c1.01-.6 1.47-1.42 1.8-2.53.62.06 1.17-.09 1.59-.31.78.47 2.05.49 2.71-.2.03 0 .15-.01.27-.02-.38.79 0 1.88.87 2.2.03.04.04.11.08.14l-.34.12-.8.9c-.18.55 0 1.12.27 1.61.01.02.02.08.02.08.02.1.05.24.1.4-.08.1-.16.18-.16.18-.8.97-2.09 1.19-2.45 2.53l-.05.18c-.41.53-.51 1.17-.14 1.76-.04.07-.07.14-.07.14-.33.6-.61 1.29-.42 1.97.19.67.74 1.16 1.25 1.59.5.43 1.01.87 1.64 1.11.73.28 1.55.22 2.3.03l.77-.24c.35-.12.71-.3 1.09-.26.41.04.72.36 1.02.62-.54 1.36.49 2.71 1.1 3.88 0 0 .14.23.18.3-.75 1.36-.83 2.86.32 4l.11.12c-.01 1.11.02 3.07 1.44 3.41 1.45.34 2.91-.47 3.79-1.57l.35-.41.28-.22c.31-.22.64-.48.82-.82.18-.36.2-.8.45-1.13v.01c.03.7.69 1.2 1.37 1.08.84-.14 1.35-1.04 1.69-1.73l.15-.3.04-.07c.41-.71.71-1.6.19-2.34-.45-.64-1.33-.81-1.94-.28v-.41l.03-1.3c.02-.19.43-.59.65-.81l.22-.21.23-.21c.46-.4.9-.84 1.06-1.45.1-.26.04-.7.06-.98l-.01-.2.01-.1c.05-.59-.04-1.19-.51-1.6.53-.32.9-.86 1.07-1.54.03.05.09.18.09.18.15.3.34.66.68.98-.05.75.22 1.45.55 2.1.33.64.4 1.35.39 2.06l.02.71c.02.37.06.76-.04 1.13-.09.34-.27.65-.36.99-.22.78-.28 1.6-.28 2.41-.11.66.27 1.3.81 1.51 2.05-5.31 1.45-11.41-1.6-16.22" style="fill:url(#f)"/><radialGradient id="g" cx="0" cy="0" r="64" gradientTransform="translate(26.492 10.436)scale(.4477)" gradientUnits="userSpaceOnUse"><stop offset="0" stop-color="#fff"/><stop offset=".299" stop-color="#0f0"/><stop offset=".564" stop-color="#00b200"/><stop offset="1" stop-color="green"/></radialGradient><path d="M19.58 28.17c.29-.39.68-.71.9-1.15.26-.55.11-1.38.11-1.97 0-.69 0-1.08.43-1.66.31-.43.64-.8.73-1.35-.97-.53-1.94-1.07-2.92-1.59-.25-.13-.82-.29-.95-.58-.16-.39 0-.89-.19-1.26-.14-.29-.59-.49-.81-.75-.3-.36-.54-.78-.89-1.11-.34-.31-.66-.46-1.09-.23-.47.26-.44-.45-.49-.76-.12.51-.23 1.03-.31 1.55.42 0 .37.12.38.52s.02.8.04 1.21c.07.17.02.26-.15.26-.05.02-.1.04-.16.06-.1.08-.17.07-.22-.03-.16-.01-.05 1.77-.04 1.92.04.57-.02 2.39.81 2.11.43.29.36.99.65 1.4.34.49.78.74.96 1.35.17.62.18 1.27.28 1.9.13.79.56 1.07 1.14 1.55.14.82.38 1.33.93 1.96.25.28.5.56.73.86.24.31.35.3.59-.03-.31-.64-.4-1.38-.36-2.09.04-.68.19-1.45-.1-2.09m6.44-25.04c.34.23.37.45.81.53.31.06.79.13 1.03-.13.58-.6 1.48-.17 2.16-.59.54-.33.99-1 1.69-1 .43-.01.69.26 1.04.45.47.26.85-.23 1.28-.37-3.34-.37-6.76.2-9.81 1.65.68.2 1.28-.13 1.8-.54m4.62 2.69c.31.02.68.24.99.11.5-.2.02-.96-.19-1.18-.15-.16-.87-.88-.73-.24.09.43.46 1.02-.07 1.31M17.63 9.8c.06-.23-.08-.32-.23-.47a18.2 18.2 0 0 0-2.5 4.76c1.4-1.09 1.29-3.19 2.73-4.29m32.48 9.14c-.26-2.77-1.06-5.5-2.43-7.94-.69-1.24-1.53-2.4-2.51-3.43q-.72-.765-1.53-1.44c-.17-.14-.35-.39-.58-.26-.21.11-.38-.29-.32-.45a18.2 18.2 0 0 0-8.07-3.32c.42.29.95.26 1.4.45.16.06.63.32.25.44-.74.25-1.58-.05-2.34 0-.47.04-.69.2-.73.68-.02.26-.09.77.01 1.02.11.29 1.01-.07 1.15-.23.23-.27-.05-.85.58-.67.23.47.72 1.83-.33 1.47-.26-.09-.75-.52-1.03-.39-.02.01-.07.34-.09.38-.09.16-.25.27-.43.32-.74.2-1.27.31-1.54 1.11-.13.39-.12.63-.55.78-.32.11-.68.18-.99.33-.42.2-.13.75.03 1.03.11.2.09.67.3.79.63.36 1.36-1.04 1.62-1.37.34-.45.73-.34 1.2-.5.22-.07.51-.63.74-.54.78.3 1.01 1.23 1.13 1.96.25 0 .09-.59.61-.46-.39-.42-.66-.98-.72-1.56.56.36.95.75 1.13 1.38.17.62.46.97.97.34.13-.13.31-.97.58-.73.23.2.23.88-.12.97.2.18.48.1.71.04.32-.08.5-.06.8.06.35.13.72.18 1.09.2s.58.36.75.64c.47.77-2.33.45-2.47.44-.34-.02-.72-.02-1.03.1-.24.1-.42.42-.71.32-.32-.1-.61-.39-.89-.57a8 8 0 0 0-1.19-.66c-.69-.31-1.47-.5-2.22-.35-.35.08-.69.23-.98.45-.35.26-.73.03-1.07.39-.53.54-.9 1.2-1.6 1.54-.29.14-.63.26-.83.51-.21.26-.21.61-.35.9-.13.28-.43.42-.19.75.21.29.27.52.12.86-.21.51-.79 1.19-.37 1.74.4.54 1.11 1.07 1.64 1.46.61.45 1.36.4 2.05.22.64-.17 1.29-.48 1.96-.53.84-.06 1.48.47 2.07 1 .39.35.54.49.24.98-.33.56-.13.96.14 1.5s.56 1.08.84 1.6c.13.23.3.44.4.68.12.28-.07.44-.2.68-.27.48-.46 1.03-.46 1.59.01.62.3.83.69 1.23.36.36.34 1 .31 1.47-.05.65.15 1.1.53 1.61.58.03 1.18-.01 1.71-.26.65-.31.93-.91 1.42-1.4.45-.45.92-.49 1.06-1.18.16-.81.59-1.13 1.18-1.63.54-.46.47-1.12.49-1.76.01-.74-.07-1.55.02-2.29.09-.67.74-1.21 1.19-1.66.33-.34.88-.67 1-1.16.07-.26.01-.61.01-.89 0-.2.07-.53-.02-.72-.24-.52-1.32-.01-1.44-.49-.08-.29-.06-.24.13-.42.22-.2 0-.4-.19-.51-.52-.31-.94-.51-1.32-1.02-.36-.47-.66-.99-.95-1.51-.07-.13-.77-1.54-.36-1.41.45.15.86.68 1.17 1.02.53.58 1.02 1.23 1.35 1.94.01.09.34.27.41.32.24.18.51.32.82.3.71-.06 1.05-.7 1.1-1.34.07-.87-.6-.69-1.12-1.1-.29-.24-.49-.57-.72-.86-.15-.17-.55-.45-.41-.73.3-.2.42-.02.71.15.34.21.71.39 1.09.51.4.13.99.01 1.33.27.21.15.36.52.5.74q.345.525.63 1.08c.29.58.37.97 1.07 1.18-.44.73-.01 1.58.33 2.24.41.8.45 1.57.44 2.45-.01.8.18 1.72-.19 2.47-.39.82-.47 1.93-.47 2.84.01-.05.03-.13.06-.18-.04.07-.16.53-.05.55.17.04.48-1.67.52-1.87.32-1.53.42-3.11.33-4.68M40.17 8.15c-.27.04-.25-.4-.44-.5-.35-.18-.75.03-1.05.19-.99.54-.71-.59-.5-1.14.03-.09.67.02.77.01.33-.05.82-.19 1.08.1.24.28.43.55.71.81.36.32-.31.5-.57.53m4.89 15.91c-.33.4-.77.7-1.02 1.16-.3.52-.15 1.14-.15 1.71.56-.26.81-1.01 1.1-1.51.21-.37.67-1.1.07-1.36m-7.23 12.48c-1.45 1.03-3.66.11-5.3.29-.37.04-.73.11-1.02.37-.38.33-.55.27-1.08.27H27.1c2.4.67 4.94.85 7.41.51a18.7 18.7 0 0 0 3.46-.81c.09-.03.94-.48.63-.59-.24-.09-.54.06-.77-.04M22.76 5.77c.32-.52.52-1.1.66-1.69a18.2 18.2 0 0 0-5.43 4.49c.91-.3 1.74-.81 2.56-1.3.4-.24.8-.48 1.19-.73.33-.21.81-.44 1.02-.77m-1.86 27.9c-.14.11-.27.26-.45.3.46.39.95.75 1.45 1.09-.39-.42-.53-1.03-1-1.39" style="fill:url(#g)"/></svg>