<svg xmlns="http://www.w3.org/2000/svg" width="64" height="64" color-interpolation="linearRGB"><path d="M36 59h5s4.5-3.38 7.12-6.92c2.91-3.91 3.96-8.03 3.96-8.03s4.98-4.01 7.96-8.03C63.02 32.01 63 28 63 28l-4-2-2 5z" style="fill:#010101;fill-opacity:.5333"/><path d="M3 28s-1 2.47-1 5.25c0 3.61.62 7.37.62 7.37s2.35 1.95 5.61 3.68c3.97 2.1 8.38 3.43 8.38 3.43l.01-13.86L29.5 20.75s-4.05-1.65-7.84-3.2c-3.37-1.38-6.55-1.67-6.55-1.67s-4.07 2.07-7.24 5.24C4.49 24.5 3 28 3 28zm27-8.25 8.93-9.69s-3.86-1.4-7.51-2.73C28.13 6.13 25 6 25 6s-1.73.72-3.63 2.62l-4.88 4.88zm1.5 1.62L47.87 27l.05 14.96s3.92-3.85 6.44-7.18c1.93-2.54 2.64-5.16 2.64-5.16s1-3.67 1-7.25c0-2.84-1.75-4.87-1.75-4.87s-4.04-2.61-8.92-4.38c-3.54-1.29-6.61-1.91-6.61-1.91s-2.05 1.44-4.32 3.58c-2.79 2.64-4.9 6.58-4.9 6.58zM46.62 29s-4.2-2.15-8.65-4.06c-3.97-1.7-7.47-2.69-7.47-2.69s-2.91 2.24-5.72 5.29c-3.16 3.43-6.16 7.08-6.16 7.08s-.38 2.97-.38 6.26c0 4.1.63 8.59.63 8.59s3.28 2.19 7.43 4.39c4.69 2.49 9.7 3.39 9.7 3.39s3.12-2.38 6.12-6.33c2.76-3.63 4.65-7.25 4.65-7.25s.46-3.59.43-7.31c-.04-3.74-.58-7.36-.58-7.36z" style="fill:none;stroke:#010000;stroke-width:4"/><linearGradient id="a" x1="13.84" x2="58.34" y1="-38.14" y2="-27.7" gradientUnits="userSpaceOnUse"><stop offset="0" stop-color="#fff8ea"/><stop offset="1" stop-color="#f5deac"/></linearGradient><path d="M46.62 29s-4.2-2.15-8.65-4.06c-3.97-1.7-7.47-2.69-7.47-2.69s-2.91 2.24-5.72 5.29c-3.16 3.43-6.16 7.08-6.16 7.08L36 42s3.67-3.28 6.34-6.54c2.64-3.24 4.28-6.46 4.28-6.46M3 28l13.62 5.87L29.5 20.75s-4.05-1.65-7.84-3.2c-3.37-1.38-6.55-1.67-6.55-1.67s-4.07 2.07-7.24 5.24C4.49 24.5 3 28 3 28m27-8.25 8.93-9.69s-3.86-1.4-7.51-2.73C28.13 6.13 25 6 25 6s-1.73.72-3.63 2.62l-4.88 4.88zm1.5 1.62L47.87 27s3.47-2.81 5.73-5.37c1.9-2.15 2.65-4.13 2.65-4.13s-4.04-2.61-8.92-4.38c-3.54-1.29-6.61-1.91-6.61-1.91s-2.05 1.44-4.32 3.58c-2.79 2.64-4.9 6.58-4.9 6.58" style="fill:url(#a)"/><linearGradient id="b" x1="44.72" x2="86.1" y1="-7.9" y2="10.51" gradientUnits="userSpaceOnUse"><stop offset="0" stop-color="#983f04"/><stop offset="1" stop-color="#e6c276"/></linearGradient><path d="M46.62 29s-1.64 3.22-4.28 6.46C39.67 38.72 36 42 36 42v15.25s3.12-2.38 6.12-6.33c2.76-3.63 4.65-7.25 4.65-7.25s.46-3.59.43-7.31c-.04-3.74-.58-7.36-.58-7.36m1.25-2 .05 14.96s3.92-3.85 6.44-7.18c1.93-2.54 2.64-5.16 2.64-5.16s1-3.67 1-7.25c0-2.84-1.75-4.87-1.75-4.87s-.75 1.98-2.65 4.13C51.34 24.19 47.87 27 47.87 27" style="fill:url(#b)"/><linearGradient id="c" x1="17.72" x2="-10.6" y1="90.92" y2="71.85" gradientUnits="userSpaceOnUse"><stop offset="0" stop-color="#eebf5a"/><stop offset="1" stop-color="#ffebc0"/></linearGradient><path d="m36 42-17.38-7.38s-.38 2.97-.38 6.26c0 4.1.63 8.59.63 8.59s3.28 2.19 7.43 4.39c4.69 2.49 9.7 3.39 9.7 3.39z" style="fill:url(#c)"/><path d="M37 31s-6-14-10-16-16 5-9 6 24-7 28-4 5 4 1 4c-1.58 0-16-1-16-1s-2.63.67-7 3.25c-4.12 2.42-9 4-9 4" style="fill:none;stroke:#010000;stroke-width:2"/><linearGradient id="d" x1="2.85" x2="21.14" y1="-64" y2="-64" gradientUnits="userSpaceOnUse"><stop offset="0" stop-color="#ffefce"/><stop offset="1" stop-color="#ffd16e"/></linearGradient><path d="M3 28s-1 2.47-1 5.25c0 3.61.62 7.37.62 7.37s2.35 1.95 5.61 3.68c3.97 2.1 8.38 3.43 8.38 3.43l.01-13.86z" style="fill:url(#d)"/></svg>