<svg xmlns="http://www.w3.org/2000/svg" width="64" height="64" color-interpolation="linearRGB"><path d="m27 57 2 2 3.13-3.17L37 59l8.39-11.46L64 38l-5-3 2 2-25 12zm31-23 4-3-4-2-3 3z" style="fill:#010101;fill-opacity:.5725"/><path d="M6.25 30s5.62 6 10.62 12.5 9.38 13.25 9.38 13.25l32.87-18.88L32 15z" style="fill:none;stroke:#010101;stroke-width:4"/><radialGradient id="a" cx="0" cy="0" r="64" gradientTransform="matrix(.5714 0 0 .3333 26 35)" gradientUnits="userSpaceOnUse"><stop offset=".489" stop-color="#ffc0c0"/><stop offset="1" stop-color="#f4f4f4"/></radialGradient><path d="M6.25 30s5.62 6 10.62 12.5 9.38 13.25 9.38 13.25l32.87-18.88L32 15z" style="fill:url(#a)"/><path d="M2.62 30.87s8.33 5.39 16.38 11c8.44 5.88 16.75 10.88 16.75 10.88l22.37-26.38s-12.68-5.67-22.75-11c-5.19-2.75-9.37-6-9.37-6z" style="fill:none;stroke:#010101;stroke-width:4"/><linearGradient id="b" x1="107.04" x2="118.33" y1="-17.09" y2="27.99" gradientUnits="userSpaceOnUse"><stop offset="0" stop-color="#e7e7e7"/><stop offset=".742" stop-color="#fff"/><stop offset="1" stop-color="#ebebeb"/></linearGradient><path d="M2.62 30.87s8.33 5.39 16.38 11c8.44 5.88 16.75 10.88 16.75 10.88l22.37-26.38s-12.68-5.67-22.75-11c-5.19-2.75-9.37-6-9.37-6z" style="fill:url(#b)"/><linearGradient id="c" x1="-47.14" x2="-28.46" y1="-15.78" y2="-37.85" gradientUnits="userSpaceOnUse"><stop offset="0" stop-color="#010101"/><stop offset="1" stop-color="#9e9e9e"/></linearGradient><path d="m33 25 5-5m-14-1 5-5m-3 26 16-17m-8 23 13-15" style="fill:none;stroke:url(#c);stroke-width:1"/><linearGradient id="d" x1="-47.14" x2="-28.46" y1="-15.78" y2="-37.85" gradientUnits="userSpaceOnUse"><stop offset="0" stop-color="#010101"/><stop offset="1" stop-color="#9e9e9e"/></linearGradient><path d="m30 43 16-18m-17-3 4-4" style="fill:none;stroke:url(#d);stroke-width:1"/><linearGradient id="e" x1="57.5" x2="71.09" y1="-34.42" y2="46.71" gradientUnits="userSpaceOnUse"><stop offset=".421" stop-color="#06f8b7"/><stop offset="1" stop-color="#1467ff"/></linearGradient><path d="m8 30 22 14 18-20-22-10z" style="fill:url(#e)" transform="matrix(.4749 0 0 .5 8.2 15)"/><path d="m8 30 22 14 18-20-22-10z" style="fill:none;stroke:#010101;stroke-width:1" transform="matrix(.4749 0 0 .5 8.2 15)"/><path d="M30 16V2s6 2 11 2c4 0 12-2 17-2v14c-5 0-13 2-17 2-5 0-11-2-11-2z" style="fill:none;stroke:#010101;stroke-width:4;stroke-linejoin:round"/><linearGradient id="f" x1="38.95" x2="66" y1="-23.75" y2="-12.14" gradientUnits="userSpaceOnUse"><stop offset="0" stop-color="#ff6d6d"/><stop offset="1" stop-color="#da1c1c"/></linearGradient><path d="M30 16V2s6 2 11 2c4 0 12-2 17-2v14c-5 0-13 2-17 2-5 0-11-2-11-2" style="fill:url(#f)"/><path d="M50 14V7h4m-21 7V7s4-1 4 2-3 2-3 2m7-4v7s5 1 5-2V9c0-3-5-2-5-2m9 4h3" style="fill:none;stroke:#fff;stroke-width:2;stroke-linecap:round;stroke-linejoin:round"/></svg>