<svg xmlns="http://www.w3.org/2000/svg" width="64" height="64" color-interpolation="linearRGB"><path d="m27 57 2 2 3.13-3.17L37 59l8.39-11.46L64 38l-5-3 2 2-25 12zm31-23 4-3-4-2-3 3z" style="fill:#010101;fill-opacity:.5725"/><path d="M6.25 30s5.62 6 10.62 12.5 9.38 13.25 9.38 13.25l32.87-18.88L32 15z" style="fill:none;stroke:#010101;stroke-width:4"/><radialGradient id="a" cx="0" cy="0" r="64" gradientTransform="matrix(.5714 0 0 .3333 26 35)" gradientUnits="userSpaceOnUse"><stop offset=".489" stop-color="#896eff"/><stop offset="1" stop-color="#c0d5ff"/></radialGradient><path d="M6.25 30s5.62 6 10.62 12.5 9.38 13.25 9.38 13.25l32.87-18.88L32 15z" style="fill:url(#a)"/><path d="M2.62 30.87s8.33 5.39 16.38 11c8.44 5.88 16.75 10.88 16.75 10.88l22.37-26.38s-12.68-5.67-22.75-11c-5.19-2.75-9.37-6-9.37-6z" style="fill:none;stroke:#010101;stroke-width:4"/><linearGradient id="b" x1="105.45" x2="119.92" y1="-23.42" y2="34.32" gradientUnits="userSpaceOnUse"><stop offset="0" stop-color="#a5b1ff"/><stop offset=".739" stop-color="#eaf1ff"/><stop offset="1" stop-color="#b3b8ff"/></linearGradient><path d="M2.62 30.87s8.33 5.39 16.38 11c8.44 5.88 16.75 10.88 16.75 10.88l22.37-26.38s-12.68-5.67-22.75-11c-5.19-2.75-9.37-6-9.37-6z" style="fill:url(#b)"/></svg>