<svg xmlns="http://www.w3.org/2000/svg" width="64" height="64" color-interpolation="linearRGB"><path d="m27 57 2 2 3.13-3.17L37 59l8.39-11.46L64 38l-5-3 2 2-25 12zm31-23 4-3-4-2-3 3z" style="fill:#010101;fill-opacity:.5725"/><path d="M6.25 30s5.62 6 10.62 12.5 9.38 13.25 9.38 13.25l32.87-18.88L32 15z" style="fill:none;stroke:#010101;stroke-width:4"/><radialGradient id="a" cx="0" cy="0" r="64" gradientTransform="matrix(.5714 0 0 .3333 26 35)" gradientUnits="userSpaceOnUse"><stop offset=".489" stop-color="#f1b706"/><stop offset="1" stop-color="#fffcc0"/></radialGradient><path d="M6.25 30s5.62 6 10.62 12.5 9.38 13.25 9.38 13.25l32.87-18.88L32 15z" style="fill:url(#a)"/><path d="M2.62 30.87s8.33 5.39 16.38 11c8.44 5.88 16.75 10.88 16.75 10.88l22.37-26.38s-12.68-5.67-22.75-11c-5.19-2.75-9.37-6-9.37-6z" style="fill:none;stroke:#010101;stroke-width:4"/><linearGradient id="b" x1="107.04" x2="118.33" y1="-17.09" y2="27.99" gradientUnits="userSpaceOnUse"><stop offset="0" stop-color="#ffefa5"/><stop offset=".742" stop-color="#fffcc0"/><stop offset="1" stop-color="#fff890"/></linearGradient><path d="M2.62 30.87s8.33 5.39 16.38 11c8.44 5.88 16.75 10.88 16.75 10.88l22.37-26.38s-12.68-5.67-22.75-11c-5.19-2.75-9.37-6-9.37-6z" style="fill:url(#b)"/><linearGradient id="c" x1="-47.14" x2="-28.46" y1="-15.78" y2="-37.85" gradientUnits="userSpaceOnUse"><stop offset="0" stop-color="#010101"/><stop offset="1" stop-color="#9e9e9e"/></linearGradient><path d="m20 36 14.87-15.13M14 32l12.87-13M26 40l12.75-13.13M32 44l10.75-11.63" style="fill:none;stroke:url(#c);stroke-width:1"/><linearGradient id="d" x1="-47.14" x2="-28.46" y1="-15.78" y2="-37.85" gradientUnits="userSpaceOnUse"><stop offset="0" stop-color="#010101"/><stop offset="1" stop-color="#9e9e9e"/></linearGradient><path d="m29 42 15-15.63M23 38l11.75-11.75M17 34l11.12-11.38" style="fill:none;stroke:url(#d);stroke-width:1"/><path d="M16.3 28.01c-2.33.11-4.5.86-6.35 2.04 0 0-.05 1.24.49 2.08l1.09 1.71a8.83 8.83 0 0 0-3.05 4.2l-1.92-.5c-.96-.25-2.13.15-2.13.15-.28 1.03-.41 2.14-.41 3.26 0 1.2.15 2.34.44 3.43 0 0 1.16.41 2.14.14l1.92-.53a9 9 0 0 0 3.03 4.12l-1.08 1.68c-.53.84-.49 2.09-.49 2.09 1.84 1.18 4 1.91 6.33 2.02 0 0 .73-.95.78-1.95l.09-2.02c1.82-.03 3.5-.62 4.91-1.57l1.25 1.55c.63.77 1.81 1.13 1.81 1.13 1.73-1.41 3.1-3.25 3.94-5.39 0 0-.69-.97-1.62-1.34l-1.88-.75c.25-.81.38-1.7.38-2.59 0-.88-.11-1.71-.34-2.52l1.86-.69c.94-.36 1.64-1.39 1.64-1.39-.8-2.15-2.18-4.03-3.93-5.45 0 0-1.16.36-1.8 1.13l-1.25 1.57A8.9 8.9 0 0 0 17.18 32l-.09-2.03c-.03-1-.78-1.96-.78-1.96zM20 41c0 1.65-1.35 3-3 3s-3-1.35-3-3c0-1.66 1.34-3 3-3 1.65 0 3 1.34 3 3z" style="fill:none;stroke:#010101;stroke-width:4"/><linearGradient id="e" x1="21.96" x2="57.17" y1="-.01" y2="22.58" gradientUnits="userSpaceOnUse"><stop offset="0" stop-color="#fdfdfd"/><stop offset="1" stop-color="#8d8d8d"/></linearGradient><path d="M16.3 28.01c-2.33.11-4.5.86-6.35 2.04 0 0-.05 1.24.49 2.08l1.09 1.71a8.83 8.83 0 0 0-3.05 4.2l-1.92-.5c-.96-.25-2.13.15-2.13.15-.28 1.03-.41 2.14-.41 3.26 0 1.2.15 2.34.44 3.43 0 0 1.16.41 2.14.14l1.92-.53a9 9 0 0 0 3.03 4.12l-1.08 1.68c-.53.84-.49 2.09-.49 2.09 1.84 1.18 4 1.91 6.33 2.02 0 0 .73-.95.78-1.95l.09-2.02c1.82-.03 3.5-.62 4.91-1.57l1.25 1.55c.63.77 1.81 1.13 1.81 1.13 1.73-1.41 3.1-3.25 3.94-5.39 0 0-.69-.97-1.62-1.34l-1.88-.75c.25-.81.38-1.7.38-2.59 0-.88-.11-1.71-.34-2.52l1.86-.69c.94-.36 1.64-1.39 1.64-1.39-.8-2.15-2.18-4.03-3.93-5.45 0 0-1.16.36-1.8 1.13l-1.25 1.57A8.9 8.9 0 0 0 17.18 32l-.09-2.03c-.03-1-.78-1.96-.78-1.96zM20 41c0 1.65-1.35 3-3 3s-3-1.35-3-3c0-1.66 1.34-3 3-3 1.65 0 3 1.34 3 3" style="fill:url(#e)"/></svg>