<svg xmlns="http://www.w3.org/2000/svg" width="64" height="64" color-interpolation="linearRGB"><path d="m27 57 2 2 3.13-3.17L37 59l8.39-11.46L64 38l-5-3 2 2-25 12zm31-23 4-3-4-2-3 3z" style="fill:#010101;fill-opacity:.5725"/><path d="M6.25 30s5.62 6 10.62 12.5 9.38 13.25 9.38 13.25l32.87-18.88L32 15z" style="fill:none;stroke:#010101;stroke-width:4"/><radialGradient id="a" cx="0" cy="0" r="64" gradientTransform="matrix(.5714 0 0 .3333 26 35)" gradientUnits="userSpaceOnUse"><stop offset=".489" stop-color="#f1b706"/><stop offset="1" stop-color="#fffcc0"/></radialGradient><path d="M6.25 30s5.62 6 10.62 12.5 9.38 13.25 9.38 13.25l32.87-18.88L32 15z" style="fill:url(#a)"/><path d="M2.62 30.87s8.33 5.39 16.38 11c8.44 5.88 16.75 10.88 16.75 10.88l22.37-26.38s-12.68-5.67-22.75-11c-5.19-2.75-9.37-6-9.37-6z" style="fill:none;stroke:#010101;stroke-width:4"/><linearGradient id="b" x1="107.04" x2="118.33" y1="-17.09" y2="27.99" gradientUnits="userSpaceOnUse"><stop offset="0" stop-color="#ffefa5"/><stop offset=".742" stop-color="#fffcc0"/><stop offset="1" stop-color="#fff890"/></linearGradient><path d="M2.62 30.87s8.33 5.39 16.38 11c8.44 5.88 16.75 10.88 16.75 10.88l22.37-26.38s-12.68-5.67-22.75-11c-5.19-2.75-9.37-6-9.37-6z" style="fill:url(#b)"/><linearGradient id="c" x1="-47.14" x2="-28.46" y1="-15.78" y2="-37.85" gradientUnits="userSpaceOnUse"><stop offset="0" stop-color="#010101"/><stop offset="1" stop-color="#9e9e9e"/></linearGradient><path d="m20 36 14.87-15.13M14 32l12.87-13M26 40l12.75-13.13M32 44l10.75-11.63" style="fill:none;stroke:url(#c);stroke-width:1"/><linearGradient id="d" x1="-47.14" x2="-28.46" y1="-15.78" y2="-37.85" gradientUnits="userSpaceOnUse"><stop offset="0" stop-color="#010101"/><stop offset="1" stop-color="#9e9e9e"/></linearGradient><path d="m29 42 15-15.63M23 38l11.75-11.75M17 34l11.12-11.38" style="fill:none;stroke:url(#d);stroke-width:1"/></svg>