<svg xmlns="http://www.w3.org/2000/svg" width="64" height="64" color-interpolation="linearRGB"><path d="M42 61h6l4-4h4l6-6-14-4z" style="fill:#010101;fill-opacity:.396"/><path d="m3 15 10 26 29 18 18-47-12-2-4 2-18-4-2 5-8-2-.09 8.2z" style="fill:none;stroke:#000;stroke-width:4"/><linearGradient id="a" x1="102.6" x2="102.74" y1="8.5" y2="47.07" gradientUnits="userSpaceOnUse"><stop offset="0" stop-color="#face79"/><stop offset="1" stop-color="#bc4105"/></linearGradient><path d="M26 8 14 41l28 17 18-46-12-2-4 2z" style="fill:url(#a)"/><linearGradient id="b" x1="103.24" x2="103.39" y1="12.68" y2="55.34" gradientUnits="userSpaceOnUse"><stop offset="0" stop-color="#fff"/><stop offset="1" stop-color="#8e8e8e"/></linearGradient><path d="M16 11v30l26 16 7-35z" style="fill:url(#b)"/><linearGradient id="c" x1="78.34" x2="101.46" y1="-26.66" y2="12.94" gradientUnits="userSpaceOnUse"><stop offset="0" stop-color="#9a9a9a"/><stop offset="1" stop-color="#505050"/></linearGradient><path d="m16 11 33 11-7 35 10-36.63z" style="fill:url(#c)"/><linearGradient id="d" x1="88.52" x2="97.54" y1="9.59" y2="51.29" gradientUnits="userSpaceOnUse"><stop offset="0" stop-color="#ffe2ac"/><stop offset="1" stop-color="#f49806"/></linearGradient><path d="m3 15 10 26 29 18-4-29z" style="fill:url(#d)"/><path d="m3 15 35 15 4 29-1.5-31z" style="fill:#a03d03"/><path d="M14.3 35.01c-2.33.11-4.5.86-6.35 2.04 0 0-.05 1.24.49 2.08l1.09 1.71a8.83 8.83 0 0 0-3.05 4.2l-1.92-.5c-.96-.25-2.13.15-2.13.15-.28 1.03-.41 2.14-.41 3.26 0 1.2.15 2.34.44 3.43 0 0 1.16.41 2.14.14l1.92-.53a9 9 0 0 0 3.03 4.12l-1.08 1.68c-.53.84-.49 2.09-.49 2.09 1.84 1.18 4 1.91 6.33 2.02 0 0 .73-.95.78-1.95l.09-2.02c1.82-.03 3.5-.62 4.91-1.57l1.25 1.55c.63.77 1.81 1.13 1.81 1.13 1.73-1.41 3.1-3.25 3.94-5.39 0 0-.69-.97-1.62-1.34l-1.88-.75c.25-.81.38-1.7.38-2.59 0-.88-.11-1.71-.34-2.52l1.86-.69c.94-.36 1.64-1.39 1.64-1.39-.8-2.15-2.18-4.03-3.93-5.46 0 0-1.16.36-1.8 1.14l-1.25 1.57A8.9 8.9 0 0 0 15.18 39l-.09-2.03c-.03-1-.78-1.96-.78-1.96zM19 48c0 2.2-1.79 4-4 4-2.2 0-4-1.79-4-4s1.78-4 4-4c2.2 0 4 1.78 4 4z" style="fill:none;stroke:#000;stroke-width:4"/><linearGradient id="e" x1="21.96" x2="57.17" y1="-.01" y2="22.58" gradientUnits="userSpaceOnUse"><stop offset="0" stop-color="#f7f9ff"/><stop offset="1" stop-color="#989db0"/></linearGradient><path d="M14.3 35.01c-2.33.11-4.5.86-6.35 2.04 0 0-.05 1.24.49 2.08l1.09 1.71a8.83 8.83 0 0 0-3.05 4.2l-1.92-.5c-.96-.25-2.13.15-2.13.15-.28 1.03-.41 2.14-.41 3.26 0 1.2.15 2.34.44 3.43 0 0 1.16.41 2.14.14l1.92-.53a9 9 0 0 0 3.03 4.12l-1.08 1.68c-.53.84-.49 2.09-.49 2.09 1.84 1.18 4 1.91 6.33 2.02 0 0 .73-.95.78-1.95l.09-2.02c1.82-.03 3.5-.62 4.91-1.57l1.25 1.55c.63.77 1.81 1.13 1.81 1.13 1.73-1.41 3.1-3.25 3.94-5.39 0 0-.69-.97-1.62-1.34l-1.88-.75c.25-.81.38-1.7.38-2.59 0-.88-.11-1.71-.34-2.52l1.86-.69c.94-.36 1.64-1.39 1.64-1.39-.8-2.15-2.18-4.03-3.93-5.46 0 0-1.16.36-1.8 1.14l-1.25 1.57A8.9 8.9 0 0 0 15.18 39l-.09-2.03c-.03-1-.78-1.96-.78-1.96zM19 48c0 2.2-1.79 4-4 4-2.2 0-4-1.79-4-4s1.78-4 4-4c2.2 0 4 1.78 4 4" style="fill:url(#e)"/></svg>