<svg xmlns="http://www.w3.org/2000/svg" width="64" height="64" color-interpolation="linearRGB"><path d="M42 61h6l4-4h4l6-6-14-4z" style="fill:#010101;fill-opacity:.396"/><path d="m3 15 10 26 29 18 18-47-12-2-4 2-18-4-2 5-8-2-.09 8.2z" style="fill:none;stroke:#000;stroke-width:4"/><linearGradient id="a" x1="102.6" x2="102.74" y1="8.5" y2="47.07" gradientUnits="userSpaceOnUse"><stop offset="0" stop-color="#face79"/><stop offset="1" stop-color="#bc4105"/></linearGradient><path d="M26 8 14 41l28 17 18-46-12-2-4 2z" style="fill:url(#a)"/><linearGradient id="b" x1="103.24" x2="103.39" y1="12.68" y2="55.34" gradientUnits="userSpaceOnUse"><stop offset="0" stop-color="#fff"/><stop offset="1" stop-color="#8e8e8e"/></linearGradient><path d="M16 11v30l26 16 7-35z" style="fill:url(#b)"/><linearGradient id="c" x1="78.34" x2="101.46" y1="-26.66" y2="12.94" gradientUnits="userSpaceOnUse"><stop offset="0" stop-color="#9a9a9a"/><stop offset="1" stop-color="#505050"/></linearGradient><path d="m16 11 33 11-7 35 10-36.63z" style="fill:url(#c)"/><linearGradient id="d" x1="88.52" x2="97.54" y1="9.59" y2="51.29" gradientUnits="userSpaceOnUse"><stop offset="0" stop-color="#ffe2ac"/><stop offset="1" stop-color="#f49806"/></linearGradient><path d="m3 15 10 26 29 18-4-29z" style="fill:url(#d)"/><path d="m3 15 35 15 4 29-1.5-31z" style="fill:#a03d03"/><path d="M4 44v16h24V44z" style="fill:none;stroke:#000;stroke-width:4"/><linearGradient id="e" x1="39.68" x2="50.16" y1="23.96" y2="47.48" gradientUnits="userSpaceOnUse"><stop offset="0" stop-color="#fff"/><stop offset="1" stop-color="#d9d093"/></linearGradient><path d="M4 44v16h24V44z" style="fill:url(#e)"/><path d="M4 44s10 8 12 8 12-8 12-8-3.43 4.79-7.72 8L28 60l-8.58-7.21C17.71 54.4 16.71 54 16 54c-.72 0-1.72.4-3.43-1.21L4 60l7.71-8C7.42 48.79 4 44 4 44" style="fill:#6b5222"/></svg>