<svg xmlns="http://www.w3.org/2000/svg" width="64" height="64" color-interpolation="linearRGB"><path d="M42 61h6l4-4h4l6-6-14-4z" style="fill:#010101;fill-opacity:.396"/><path d="m3 15 10 26 29 18 18-47-12-2-4 2-18-4-2 5-8-2-.09 8.2z" style="fill:none;stroke:#000;stroke-width:4"/><linearGradient id="a" x1="102.6" x2="102.74" y1="8.5" y2="47.07" gradientUnits="userSpaceOnUse"><stop offset="0" stop-color="#face79"/><stop offset="1" stop-color="#bc4105"/></linearGradient><path d="M26 8 14 41l28 17 18-46-12-2-4 2z" style="fill:url(#a)"/><linearGradient id="b" x1="103.24" x2="103.39" y1="12.68" y2="55.34" gradientUnits="userSpaceOnUse"><stop offset="0" stop-color="#fff"/><stop offset="1" stop-color="#8e8e8e"/></linearGradient><path d="M16 11v30l26 16 7-35z" style="fill:url(#b)"/><linearGradient id="c" x1="78.34" x2="101.46" y1="-26.66" y2="12.94" gradientUnits="userSpaceOnUse"><stop offset="0" stop-color="#9a9a9a"/><stop offset="1" stop-color="#505050"/></linearGradient><path d="m16 11 33 11-7 35 10-36.63z" style="fill:url(#c)"/><linearGradient id="d" x1="88.52" x2="97.54" y1="9.59" y2="51.29" gradientUnits="userSpaceOnUse"><stop offset="0" stop-color="#ffe2ac"/><stop offset="1" stop-color="#f49806"/></linearGradient><path d="m3 15 10 26 29 18-4-29z" style="fill:url(#d)"/><path d="m3 15 35 15 4 29-1.5-31z" style="fill:#a03d03"/><path d="M15 36s-4 4-4 11c-2-4-7-5-7-5s-1 6 5 9c0 0 0 1-6 1 0 0 3 6 11 4v4h2v-4c8 2 11-4 11-4-6 0-6-1-6-1 6-3 5-9 5-9s-5 1-7 5c0-7-4-11-4-11z" style="fill:none;stroke:#000;stroke-width:4"/><radialGradient id="e" cx="0" cy="0" r="64" gradientTransform="matrix(.0874 -.379 .4747 .1095 8.15 41.589)" gradientUnits="userSpaceOnUse"><stop offset="0" stop-color="#ffb11b"/><stop offset="1" stop-color="#fff9c7"/></radialGradient><path d="M15 36s-4 4-4 11c-2-4-7-5-7-5s-1 6 5 9c0 0 0 1-6 1 0 0 3 6 11 4v4h2v-4c8 2 11-4 11-4-6 0-6-1-6-1 6-3 5-9 5-9s-5 1-7 5c0-7-4-11-4-11" style="fill:url(#e)"/></svg>