<svg xmlns="http://www.w3.org/2000/svg" width="64" height="64" color-interpolation="linearRGB"><linearGradient id="a" x1="65.06" x2="71.69" y1="43.9" y2="52.07" gradientUnits="userSpaceOnUse"><stop offset="0"/><stop offset="1" stop-opacity="0"/></linearGradient><path d="M32 50c4 0 2 10 8 10s8-10 12-6l8 8" style="fill:none;stroke:url(#a);stroke-width:4"/><path d="M14 51s-4-2-2-6l4-8 6 3-6 12z" style="fill:none;stroke:#000;stroke-width:4"/><path d="M14 51s-4-2-2-6l4-8 6 3-6 12z" style="fill:#c7d0d8"/><path d="m30 44-6 6c-4 4-8 2-8 2s-4-2-2-6l4-8z" style="fill:#49687b"/><linearGradient id="b" x1="48.28" x2="48.22" y1="48.14" y2="64.06" gradientUnits="userSpaceOnUse"><stop offset="0"/><stop offset=".667"/><stop offset="1" stop-opacity="0"/></linearGradient><path d="M26 47s-4-6-8-4-4 6-4 6v15h12z" style="fill:none;stroke:url(#b);stroke-width:4"/><linearGradient id="c" x1="71.73" x2="71.75" y1="34.41" y2="63.87" gradientUnits="userSpaceOnUse"><stop offset=".261" stop-color="#7f909c"/><stop offset=".477" stop-color="#fff"/><stop offset=".822" stop-color="#c5ccd1"/><stop offset="1" stop-color="#c5ccd1" stop-opacity="0"/></linearGradient><path d="M26 47s-4-6-8-4-4 6-4 6v15h12z" style="fill:url(#c)"/><linearGradient id="d" x1="58.27" x2="58.22" y1="48.24" y2="63.98" gradientUnits="userSpaceOnUse"><stop offset="0" stop-color="#174861"/><stop offset=".667" stop-color="#7a909c"/><stop offset="1" stop-color="#7a909c" stop-opacity="0"/></linearGradient><path d="M18 51v13h8V47s0-4-4-2-4 6-4 6" style="fill:url(#d)"/><path d="m16 37 14 7-6 12-2-1s-4-2-2-6l2-4-6-3m18 4-4 8c-2 4-6 2-6 2s-4-2-2-6l4-8z" style="fill:none;stroke:#000;stroke-width:4"/><linearGradient id="e" x1="33.64" x2="41.29" y1="27.87" y2="39.62" gradientUnits="userSpaceOnUse"><stop offset="0" stop-color="#c1cbd2"/><stop offset=".462" stop-color="#fff"/><stop offset="1" stop-color="#9dabb6"/></linearGradient><path d="m16 37 14 7-6 12-2-1s-4-2-2-6l2-4-6-3" style="fill:url(#e)"/><radialGradient id="f" cx="0" cy="0" r="64" gradientTransform="matrix(.0901 -.0713 .142 .1793 22.843 51.12)" gradientUnits="userSpaceOnUse"><stop offset=".455" stop-color="#738b98"/><stop offset=".996" stop-color="#204965"/></radialGradient><path d="m34 46-4 8c-2 4-6 2-6 2s-4-2-2-6l4-8z" style="fill:url(#f)"/><path d="M28 53a2 2 0 1 1-4 0c0-1.11.89-2 2-2a2 2 0 0 1 2 2" style="fill:#000"/><path d="M28 2c-4-1-7 0-9 4L9 26q-3 6 3 9l8 4q6 3 9-3l12-24c2-4 0-7-4-8zm20 7c-2-2-5-1-6 1L28 38c-1 2 0 5 2 6l8 4c2 1 5 0 6-2l12-24c1-2 1-5-1-7zm0 0c-2-2-5.9-3.98-11-5L20 39l10 5z" style="fill:none;stroke:#000;stroke-width:4"/><linearGradient id="g" x1="42.2" x2="26.06" y1="7.1" y2="39.77" gradientUnits="userSpaceOnUse"><stop offset="0" stop-color="#d2d2d2"/><stop offset="1" stop-color="#84959d"/></linearGradient><path d="M48 9c-2-2-5.9-3.98-11-5L20 39l10 5z" style="fill:url(#g)"/><radialGradient id="h" cx="0" cy="0" r="64" gradientTransform="matrix(.2295 .0363 -.0836 .5285 46.894 20.298)" gradientUnits="userSpaceOnUse"><stop offset="0" stop-color="#8a9eaa"/><stop offset="1" stop-color="#3b607a"/></radialGradient><path d="M48 9c-2-2-5-1-6 1L28 38c-1 2 0 5 2 6l8 4c2 1 5 0 6-2l12-24c1-2 1-5-1-7z" style="fill:url(#h)"/><radialGradient id="i" cx="0" cy="0" r="64" gradientTransform="matrix(.2932 .0465 -.075 .4725 25.77 8.2)" gradientUnits="userSpaceOnUse"><stop offset="0" stop-color="#fff"/><stop offset="1" stop-color="#b0b9c0"/></radialGradient><path d="M28 2c-4-1-7 0-9 4L9 26q-3 6 3 9l8 4q6 3 9-3l12-24c2-4 0-7-4-8z" style="fill:url(#i)"/><path d="M15.58 29.64 12.8 35.4M28.89 2.2l-2.65 5.47m3.48 1.04L32.5 3M19.2 38.59l2.87-5.91m-3.25-1.52L16 37M33.2 9.75l2.89-5.96M38.93 26.62 35 24l-6.52-2.48m-1.63 3.36 6.4 2.62 3.96 2.46m-7.09-11.8 6.63 2.34 3.9 2.78m1.72-3.35L38.5 17l-6.75-2.2M23.14 12 17 10m-1.5 3 6.12 2.15m13.87 18.16L31.5 31l-6.28-2.76m-1.64 3.37 6.17 2.89 4.02 2.16m11.07-1.94L48.5 37m1.5-3-3.57-2.38m1.59-3.09L51.5 31m1.5-3-3.38-2.57m1.59-3.09L54.5 25M33.38 11.44l6.87 2.06 3.84 3.1M18.5 7l6.18 1.84m16.96 32.08L45.5 43m1.5-3-3.76-2.19M9.5 25l5.98 2.8m1.54-3.16L11 22m1.5-3 6.05 2.47m1.53-3.16L14 16" style="fill:none;stroke:#000;stroke-width:2"/></svg>