<svg xmlns="http://www.w3.org/2000/svg" width="64" height="64" color-interpolation="linearRGB"><linearGradient id="a" x1="0" x2="8" y1="-64" y2="-64" gradientUnits="userSpaceOnUse"><stop offset="0" stop-color="#fbff00" stop-opacity="0"/><stop offset="1" stop-color="#fbff00"/></linearGradient><path d="M0 48v6h24v-6z" style="fill:url(#a)"/><path d="M20 40s0 1 1 2c4 2 6 7 6 10h1v8l8-4v-4h1c0-3 2-8 6-10 1-1 1-2 1-2 0-4-2-32-4-34s-4-2-8-2-6 0-8 2-4 30-4 34z" style="fill:none;stroke:#010101;stroke-width:4" transform="rotate(45.001 35 39.86)"/><radialGradient id="b" cx="0" cy="0" r="64" gradientTransform="matrix(.3125 0 0 .875 24 8)" gradientUnits="userSpaceOnUse"><stop offset="0" stop-color="#ffea00"/><stop offset="1" stop-color="#fa0"/></radialGradient><path d="M20 40c0 2 6.03 3 12 3 6.03 0 12-1 12-3 0-4-2-32-4-34s-4-2-8-2-6 0-8 2-4 30-4 34" style="fill:url(#b)" transform="rotate(45.001 35 39.86)"/><linearGradient id="c" x1="15.92" x2="22.92" y1="37.42" y2="33.53" gradientUnits="userSpaceOnUse"><stop offset="0" stop-color="#ff0"/><stop offset="1" stop-color="#ffbf00"/></linearGradient><path d="m28 60 8-4v-4h-8z" style="fill:url(#c)" transform="rotate(45.001 35 39.86)"/><path d="M27 52s2 1 5 1 5-1 5-1c0-3 2-8 6-10 1-1 1-2 1-2 0 2-6 3-12 3s-12-1-12-3c0 0 0 1 1 2 4 2 6 7 6 10" style="fill:#010101" transform="rotate(45.001 35 39.86)"/><path d="M22 38s2-30 3-31c2 2 12 2 13 0 0 3-10 3-10 3l-2 30c-2 0-4-1-4-2" style="fill:#fdff97" transform="rotate(45.001 35 39.86)"/><path d="m28 51 2 1-2-7s3 0 5-2c-4 1-9 0-9 0 2 2 4 6 4 8" style="fill:#b9b9b9" transform="rotate(45.001 35 39.86)"/></svg>