<svg xmlns="http://www.w3.org/2000/svg" width="64" height="64" color-interpolation="linearRGB"><linearGradient id="a" x1="-64" x2="64" y1="-64" y2="-64" gradientUnits="userSpaceOnUse"><stop offset=".581" stop-color="#a9a9a9"/><stop offset="1" stop-color="#181818"/></linearGradient><path d="M4 24v3l56 1v-4zM32 8 4 28l28 20 28-20z" style="fill:url(#a)" transform="matrix(1.1184 0 0 1.0438 -4.105 5.895)"/><linearGradient id="b" x1="-64" x2="64" y1="-64" y2="-64" gradientUnits="userSpaceOnUse"><stop offset=".553" stop-color="#fff"/><stop offset="1" stop-color="#979797"/></linearGradient><path d="M32 4 4 24l28 20 28-20z" style="fill:url(#b)" transform="matrix(1.1184 0 0 1.0438 -4.105 4.851)"/><path d="M45 57c4 0 9 0 10-2s9-19 9-23-2-6-2-6l-2 2s2 2 1.01 3.94C59.27 35.44 56 42 54 43s-6 1-6 1zM15 29c10 0 15.99-8 17-9 2-2 1-4 1-4l2-1s1 3-1 7c-.75 1.47-13 20-19 18z" style="fill:#010101;fill-opacity:.4196" transform="translate(7.727 5.55)scale(.6888)"/><path d="M2 16S26 2.87 30 6.87 34 14 34 14l-1 1-5-6-10 4v5L2 28z" style="fill:none;stroke:#000;stroke-width:4;stroke-linecap:round;stroke-linejoin:round" transform="translate(7.727 5.55)scale(.6888)"/><linearGradient id="c" x1="18.37" x2="42.89" y1="-30.82" y2="-22.94" gradientUnits="userSpaceOnUse"><stop offset="0" stop-color="#919292"/><stop offset="1" stop-color="#d5d5d5"/></linearGradient><path d="M2 16S26 2.87 30 6.87 34 14 34 14l-1 1-5-6-10 4v5L2 28z" style="fill:url(#c)" transform="translate(7.727 5.55)scale(.6888)"/><path d="M46 36s8-14 12-16 4 9 4 9l-1 2-3-5-5 8-1 12-7 9-19-9s-1-8-4-10-4 6-4 6L2 34V17z" style="fill:none;stroke:#000;stroke-width:4;stroke-linecap:round;stroke-linejoin:round" transform="translate(7.727 5.55)scale(.6888)"/><linearGradient id="d" x1="40" x2="52" y1="-23" y2="-23" gradientUnits="userSpaceOnUse"><stop offset=".369" stop-color="#f8f8f8"/><stop offset=".518" stop-color="#c7c7c7"/></linearGradient><path d="M46 36s8-14 12-16 4 9 4 9l-1 2-3-5-5 8-1 12-7 9-19-9s-1-8-4-10-4 6-4 6L2 34V17zm-17-2c-1 1-1 7 0 8l12 6c1-1 1-8 0-9zM6 23c-1 1-1 7 0 8l10 5c1-1 1-7 0-8z" style="fill:url(#d)" transform="translate(7.727 5.55)scale(.6888)"/><path d="M6 23c-1 1-1 7 0 8l10 5c1-1 1-7 0-8zm23 11c-1 1-1 7 0 8l12 6c1-1 1-8 0-9z" style="fill:#000" transform="translate(7.727 5.55)scale(.6888)"/><linearGradient id="e" x1="19.13" x2="31.86" y1=".81" y2="9.56" gradientUnits="userSpaceOnUse"><stop offset=".051" stop-color="#97bbff"/><stop offset=".482" stop-color="#4168db" stop-opacity=".914"/><stop offset="1" stop-color="#4168db" stop-opacity=".592"/></linearGradient><path d="M6 23c-1 1-1 7 0 8l10 5c1-1 1-7 0-8z" style="fill:url(#e)" transform="translate(7.727 5.55)scale(.6888)"/><linearGradient id="f" x1="79.6" x2="95.97" y1="-48.49" y2="-37.23" gradientUnits="userSpaceOnUse"><stop offset=".051" stop-color="#f56a7d" stop-opacity=".624"/><stop offset=".882" stop-color="#ea064c" stop-opacity=".78"/></linearGradient><path d="M29 34c-1 1-1 7 0 8l12 6c1-1 1-8 0-9z" style="fill:url(#f)" transform="translate(7.727 5.55)scale(.6888)"/></svg>