<svg xmlns="http://www.w3.org/2000/svg" width="64" height="64" color-interpolation="linearRGB"><path d="M44 64h5l15-16-4-2zM19 20c-7.19 0-13 2.23-13 5 0 2.75 5.81 5 13 5 7.17 0 13-2.25 13-5 0-2.77-5.83-5-13-5" style="fill:#010101;fill-opacity:.4313"/><path d="M32 42s-14 0-14-4c0-8 16-10 16-16 0-4-11-4-11-4" style="fill:none;stroke:#010101;stroke-opacity:.4313;stroke-width:4" transform="matrix(1 0 0 .9285 2 3.143)"/><path d="M32 42s-14 0-14-4c0-8 16-10 16-16 0-4-11-4-11-4m26 4 9 3v23L44 62l-10-6V32zM14 2C7.37 2 2 7.37 2 14c0 6.61 5.37 12 12 12 6.61 0 12-5.39 12-12 0-6.63-5.39-12-12-12z" style="fill:none;stroke:#000;stroke-width:4"/><linearGradient id="a" x1="33.69" x2="51.6" y1="1.88" y2="3.67" gradientUnits="userSpaceOnUse"><stop offset="0" stop-color="#d7d7d7"/><stop offset="1" stop-color="#b8b8b8"/></linearGradient><path d="M44 36v26l-2.13-1.38v-10L36 48l.02 9.21L34 56V32z" style="fill:url(#a)"/><path d="M37.48 48.66 36 48l.02 9.21 1.29.75z" style="fill:#949494"/><linearGradient id="b" x1="33.69" x2="51.6" y1="1.88" y2="3.67" gradientUnits="userSpaceOnUse"><stop offset="0" stop-color="#d2d2d2"/><stop offset="1" stop-color="#858585"/></linearGradient><path d="m40.39 49.96-2.91-1.3-.17 9.3 3.06 1.79z" style="fill:url(#b)"/><path d="M41.87 60.62v-10l-1.48-.66-.02 9.79z" style="fill:#c4c4c4"/><linearGradient id="c" x1="24" x2="64" y1="7.99" y2="7.99" gradientUnits="userSpaceOnUse"><stop offset="0" stop-color="#f4f4f4"/><stop offset="1" stop-color="#dbdbdb"/></linearGradient><path d="m49 22 9 3-14 11-10-4z" style="fill:url(#c)"/><linearGradient id="d" x1="55.69" x2="74.97" y1="-10.23" y2="-5.41" gradientUnits="userSpaceOnUse"><stop offset="0" stop-color="#5c5c5c"/><stop offset="1" stop-color="#838383"/></linearGradient><path d="m44 36 14-11v23L44 62z" style="fill:url(#d)"/><linearGradient id="e" x1="33.69" x2="51.6" y1="1.88" y2="3.67" gradientUnits="userSpaceOnUse"><stop offset="0" stop-color="#d2d2d2"/><stop offset="1" stop-color="#858585"/></linearGradient><path d="M40 38v2l2 .5v-2z" style="fill:none;stroke:url(#e);stroke-width:1"/><path d="M40 38v2l2 .5v-2z" style="fill:#a9ff00"/><radialGradient id="f" cx="0" cy="0" r="64" gradientTransform="matrix(.25 0 0 .25 10 10)" gradientUnits="userSpaceOnUse"><stop offset=".044" stop-color="#9eedff"/><stop offset=".146" stop-color="#67ceff"/><stop offset="1" stop-color="#0473b3"/></radialGradient><path d="M14 2c-3.54 0-6.73 1.52-8.93 3.96C5.07 5.96 8 6 8 8s-4 6-4 6v2s2 0 4 2 0 4 0 4l2.27 3.41c1.17.37 2.42.59 3.73.59 2.99 0 5.72-1.1 7.83-2.93L20 22l2-4s-6-2-6-4 4-6 4-6l-2-2-2.13 2H14l2-2-2-2 3.39-1.52C16.31 2.16 15.17 2 14 2" style="fill:url(#f)"/><radialGradient id="g" cx="0" cy="0" r="64" gradientTransform="matrix(.25 0 0 .25 10 10)" gradientUnits="userSpaceOnUse"><stop offset="0" stop-color="#b9ff97"/><stop offset=".746" stop-color="#05d65e"/><stop offset="1" stop-color="#049943"/></radialGradient><path d="M5.07 5.96A11.97 11.97 0 0 0 2 14c0 5.32 3.47 9.84 8.27 11.41L8 22s2-2 0-4-4-2-4-2v-2s4-4 4-6-2.93-2.04-2.93-2.04M14 8h2.37L18 6l2 2s-4 4-4 6 6 4 6 4l-2 4 1.83 1.07C24.38 20.88 26 17.62 26 14c0-5.46-3.64-10.05-8.61-11.52L14 4l2 2z" style="fill:url(#g)"/></svg>