<svg xmlns="http://www.w3.org/2000/svg" width="64" height="64" color-interpolation="linearRGB"><path d="M28 56h4l2 2h6l2-2-4-2-1-15z" style="fill:#010000;fill-opacity:.4156" transform="matrix(.9473 0 0 1 24.21 -20)"/><path d="M28 56h4l2 2h6l2-2-4-2-1-15z" style="fill:#010000;fill-opacity:.4156" transform="matrix(.9473 0 0 1 16.631 -14)"/><path d="M28 56h4l2 2h6l2-2-4-2-1-15z" style="fill:#010000;fill-opacity:.4156" transform="matrix(.9473 0 0 1 9.053 -6)"/><path d="M28 56h4l2 2h6l2-2-4-2-1-15z" style="fill:#010000;fill-opacity:.4156" transform="matrix(.9473 0 0 1 1.474 0)"/><path d="M34 10 2 35l26 11 30-28-9-3c-1 1-4 1-6 0s-3-2-2-3zM2 41l26 13v-8L2 35zm26 13 30-30v-6L28 46z" style="fill:none;stroke:#010000;stroke-width:4;stroke-linecap:round;stroke-linejoin:round"/><path d="m28 54 30-30v-6L28 46z" style="fill:#333"/><linearGradient id="a" x1="19.72" x2="38.64" y1="22.9" y2="38.79" gradientUnits="userSpaceOnUse"><stop offset="0" stop-color="#747474"/><stop offset="1" stop-color="#3e3d3d"/></linearGradient><path d="m2 41 26 13v-8L2 35z" style="fill:url(#a)"/><linearGradient id="b" x1="9.31" x2="45.35" y1="3.47" y2="4.63" gradientUnits="userSpaceOnUse"><stop offset="0" stop-color="#b0b0b0"/><stop offset="1" stop-color="#838383"/></linearGradient><path d="M34 10 2 35l26 11 30-28-9-3c-1 1-4 1-6 0s-3-2-2-3z" style="fill:url(#b)"/><path d="m34 44-4 4 2 1c1 .5 2 1.85 2 2.99 0 2.37.99 5.01.99 5.01L37 54.99s1-4.63 1-7c0-1.14-1-2.49-2-2.99z" style="fill:none;stroke:#010000;stroke-width:4;stroke-linecap:round;stroke-linejoin:round" transform="matrix(.9444 0 0 .9023 24.224 -15.505)"/><linearGradient id="c" x1="44.86" x2="50.72" y1="32.73" y2="38.17" gradientUnits="userSpaceOnUse"><stop offset="0" stop-color="#5a5a5a"/><stop offset=".223" stop-color="#dcdcdc"/><stop offset="1" stop-color="#7e7e7e"/></linearGradient><path d="m34 44-4 4 2 1c1 .5 2 1.85 2 2.99 0 2.37.99 5.01.99 5.01L37 54.99s1-4.63 1-7c0-1.14-1-2.49-2-2.99z" style="fill:url(#c)" transform="matrix(.9444 0 0 .9023 24.224 -15.505)"/><path d="m34 44-4 4 2 1c1 .5 2 1.85 2 2.99 0 2.37.99 5.01.99 5.01L37 54.99s1-4.63 1-7c0-1.14-1-2.49-2-2.99z" style="fill:none;stroke:#010000;stroke-width:4;stroke-linecap:round;stroke-linejoin:round" transform="matrix(.9444 0 0 .9023 16.668 -8.287)"/><linearGradient id="d" x1="44.86" x2="50.72" y1="32.73" y2="38.17" gradientUnits="userSpaceOnUse"><stop offset="0" stop-color="#5a5a5a"/><stop offset=".223" stop-color="#dcdcdc"/><stop offset="1" stop-color="#7e7e7e"/></linearGradient><path d="m34 44-4 4 2 1c1 .5 2 1.85 2 2.99 0 2.37.99 5.01.99 5.01L37 54.99s1-4.63 1-7c0-1.14-1-2.49-2-2.99z" style="fill:url(#d)" transform="matrix(.9444 0 0 .9023 16.668 -8.287)"/><path d="m34 44-4 4 2 1c1 .5 2 1.85 2 2.99 0 2.37.99 5.01.99 5.01L37 54.99s1-4.63 1-7c0-1.14-1-2.49-2-2.99z" style="fill:none;stroke:#010000;stroke-width:4;stroke-linecap:round;stroke-linejoin:round" transform="matrix(.9444 0 0 .9023 9.113 -1.068)"/><linearGradient id="e" x1="44.86" x2="50.72" y1="32.73" y2="38.17" gradientUnits="userSpaceOnUse"><stop offset="0" stop-color="#5a5a5a"/><stop offset=".223" stop-color="#dcdcdc"/><stop offset="1" stop-color="#7e7e7e"/></linearGradient><path d="m34 44-4 4 2 1c1 .5 2 1.85 2 2.99 0 2.37.99 5.01.99 5.01L37 54.99s1-4.63 1-7c0-1.14-1-2.49-2-2.99z" style="fill:url(#e)" transform="matrix(.9444 0 0 .9023 9.113 -1.068)"/><path d="m34 44-4 4 2 1c1 .5 2 1.85 2 2.99 0 2.37.99 5.01.99 5.01L37 54.99s1-4.63 1-7c0-1.14-1-2.49-2-2.99z" style="fill:none;stroke:#010000;stroke-width:4;stroke-linecap:round;stroke-linejoin:round" transform="matrix(.9444 0 0 .9023 1.558 6.15)"/><linearGradient id="f" x1="44.86" x2="50.72" y1="32.73" y2="38.17" gradientUnits="userSpaceOnUse"><stop offset="0" stop-color="#5a5a5a"/><stop offset=".223" stop-color="#dcdcdc"/><stop offset="1" stop-color="#7e7e7e"/></linearGradient><path d="m34 44-4 4 2 1c1 .5 2 1.85 2 2.99 0 2.37.99 5.01.99 5.01L37 54.99s1-4.63 1-7c0-1.14-1-2.49-2-2.99z" style="fill:url(#f)" transform="matrix(.9444 0 0 .9023 1.558 6.15)"/></svg>