<svg xmlns="http://www.w3.org/2000/svg" width="64" height="64" color-interpolation="linearRGB"><path d="M38 60h6l-4-2 24-24v-5h-2l-3 2-4 3-11-4 1-2-23-11L4 36l34 17z" style="fill:#010000;fill-opacity:.4196"/><path d="m4 32 36 18 16-16-6.07-2.87L48 33l-10-5 2.21-1.44L22 18z" style="fill:none;stroke:#010101;stroke-width:4;stroke-linecap:square"/><linearGradient id="a" x1="41.93" x2="57.8" y1="7.25" y2="35.03" gradientUnits="userSpaceOnUse"><stop offset=".004" stop-color="#a3d444"/><stop offset="1" stop-color="#70a804"/></linearGradient><path d="m4 32 36 18 16-16-6.07-2.87L48 33l-10-5 2.21-1.44L22 18z" style="fill:url(#a)"/><linearGradient id="b" x1="48.17" x2="58.29" y1="5.64" y2="35.99" gradientUnits="userSpaceOnUse"><stop offset=".004" stop-color="#fff2ac"/><stop offset="1" stop-color="#ffd805"/></linearGradient><path d="M23 20 9 32l14 7 3-2 15 8M26 21l-7 6 11 7-1 1 14 8M29 23 18 33l4 2 10-10m4 2-3 3 2 4-3 4 3 2 5-6 8 4" style="fill:none;stroke:url(#b);stroke-width:2"/><linearGradient id="c" x1="35.74" x2="37.78" y1="21.92" y2="31.28" gradientUnits="userSpaceOnUse"><stop offset="0" stop-color="#717171"/><stop offset="1" stop-color="#010101"/></linearGradient><path d="m23 26 8 4-5 5-8-4z" style="fill:url(#c)"/><linearGradient id="d" x1="35.74" x2="37.78" y1="21.92" y2="31.28" gradientUnits="userSpaceOnUse"><stop offset="0" stop-color="#717171"/><stop offset="1" stop-color="#010101"/></linearGradient><path d="m23 26 8 4-5 5-8-4z" style="fill:url(#d)" transform="translate(13.778 12.778)scale(.7777)"/><path d="m34 56 4 2v-2s-1.6-1.4-2-2l22-22c0-1 2-4 2-4v-2s-2 1-2 0L34 48z" style="fill:none;stroke:#010101;stroke-width:4;stroke-linecap:square"/><linearGradient id="e" x1="15.86" x2="45.6" y1="64.94" y2="17.74" gradientUnits="userSpaceOnUse"><stop offset="0" stop-color="#0c0c0c"/><stop offset=".369" stop-color="#797979"/><stop offset=".647" stop-color="#c6c6c6"/><stop offset=".788" stop-color="#a2a2a2"/><stop offset="1" stop-color="#e8e8e8"/></linearGradient><path d="m34 56 24-24c0-1 3-5 3-5v-2s-3 2-3 1L34 48z" style="fill:url(#e)"/><path d="m34 48 4 2v2s-2-1-2 1 2 3 2 3-1-1-1-2 3-4 3-4v-2l-6-2z" style="fill:#010101"/><linearGradient id="f" x1="44.73" x2="50.41" y1="40.53" y2="50.57" gradientUnits="userSpaceOnUse"><stop offset="0" stop-color="#d3d3d3"/><stop offset="1" stop-color="#a9a9a9"/></linearGradient><path d="m34 48 4 2v2s-2-1-2 1 2 3 2 3v2l-4-2z" style="fill:url(#f)"/><path d="m45 44 3-3v-4l-3 3z" style="fill:#010101"/></svg>