<svg xmlns="http://www.w3.org/2000/svg" width="64" height="64" color-interpolation="linearRGB"><path d="M62 56c-6 6-16 4-16 4l-8-4s-4 0-4 4L24 48l22-3s25 1 16 11" style="fill:#010101;fill-opacity:.4509"/><path d="M44 58c2 1 4 0 6-2 4-4 8-13 8-19q0-4.5-3-6L20 17c-2-1-3-1-6 1-4 3-8 11-8 17 0 3 1 6 3 7z" style="fill:none;stroke:#000;stroke-width:4"/><linearGradient id="a" x1="-20.14" x2="-8.39" y1="28.87" y2="2.28" gradientUnits="userSpaceOnUse"><stop offset=".007" stop-color="#663602"/><stop offset=".42" stop-color="#7a5631"/><stop offset="1" stop-color="#bda080"/></linearGradient><path d="M39.26 24.7C29.96 20.98 20 17 20 17c-2-1-3-1-6 1-4 3-8 11-8 17 0 3 1 6 3 7 0 0 10.85 4.96 20.47 9.36C24 47 24.36 38.46 27 33c2.19-4.56 7-7 12.26-8.3" style="fill:url(#a)"/><path d="M50 26 22 10l-8 16 29 15z" style="fill:none;stroke:#000;stroke-width:4"/><radialGradient id="b" cx="0" cy="0" r="64" gradientTransform="matrix(-.3401 .237 -.1558 -.2235 34.305 27.423)" gradientUnits="userSpaceOnUse"><stop offset="0" stop-color="#a6a6a6"/><stop offset=".5" stop-color="#fff"/><stop offset=".994" stop-color="#939393"/></radialGradient><path d="M49.81 25.98 22 10l-8 16 2 1 2-1v2l2-1v2l2-1v2l2-1v2l2-1v2l2-1v2l15 7z" style="fill:url(#b)"/><path d="M44 58c2 1 13-26 11-27 0 0-5.97-2.39-12.98-5.2-4.66-1.86-10.28 2.39-12.97 8.4-3.05 6.8-.7 16.81 4.42 19.16C41.13 56.86 44 58 44 58z" style="fill:none;stroke:#000;stroke-width:4"/><linearGradient id="c" x1="-20.14" x2="-8.39" y1="28.87" y2="2.28" gradientUnits="userSpaceOnUse"><stop offset=".007" stop-color="#663602"/><stop offset=".42" stop-color="#7a5631"/><stop offset="1" stop-color="#bda080"/></linearGradient><path d="M44 58c2 1 13-26 11-27 0 0-5.97-2.39-12.98-5.2-4.66-1.86-12.8 2.63-15.97 8.4-3.63 6.58-1.7 14.81 3.42 17.16z" style="fill:url(#c)"/><path d="M42 52c0 7 4 8 8 4s8-13 8-19-4-8-8-4-8 12-8 19z" style="fill:none;stroke:#462501;stroke-width:4" transform="matrix(.9 0 0 .8727 4 5.424)"/><radialGradient id="d" cx="0" cy="0" r="64" gradientTransform="matrix(.0898 .0367 -.0841 .2057 50.08 45.209)" gradientUnits="userSpaceOnUse"><stop offset="0" stop-color="#e3c9a3"/><stop offset=".151" stop-color="#ae7625"/><stop offset=".299" stop-color="#e3c9a3"/><stop offset=".473" stop-color="#ae7625"/><stop offset=".663" stop-color="#e3c9a3"/><stop offset=".833" stop-color="#ae7625"/><stop offset=".996" stop-color="#e3c9a3"/></radialGradient><path d="M42 52c0 7 4 8 8 4s8-13 8-19-4-8-8-4-8 12-8 19" style="fill:url(#d)"/><linearGradient id="e" x1="-19.7" x2="-8.39" y1="27.87" y2="2.28" gradientUnits="userSpaceOnUse"><stop offset=".462" stop-color="#6a4217"/><stop offset="1" stop-color="#997b5b"/></linearGradient><path d="M26 34s6 10 8 10c1.06 0 2.53-4.72 5-8 3-4 5-4.06 5-5 0-2-5-6-5-6s-8-1-13 9" style="fill:url(#e)"/><path d="M15 8c4 2-4 15-4 17s2 2 2 2l9-18s1-2-1-3l-6-3c-2-1-3 1-3 1L4 20c-1 2 1 3 1 3s2 1 3-1v-3l2-1v-3l2-1v-3l2-1z" style="fill:none;stroke:#000;stroke-width:4" transform="translate(-2 -1)"/><path d="M15 8c4 2-4 15-4 17s2 2 2 2l9-18s1-2-1-3l-6-3c-2-1-3 1-3 1L4 20c-1 2 1 3 1 3s2 1 3-1v-3l2-1v-3l2-1v-3l2-1z" style="fill:none;stroke:#000;stroke-width:4"/><linearGradient id="f" x1="-15.01" x2="-8.02" y1="18.06" y2="5.04" gradientUnits="userSpaceOnUse"><stop offset="0" stop-color="#c70505"/><stop offset=".996" stop-color="#ff6e6e"/></linearGradient><path d="M13 2c-2-1-3 1-3 1L2 19c-1 2 1 3 1 3l2 1s-2-1-1-3l8-16s1-2 3-1z" style="fill:url(#f)"/><path d="M13.28 7.14c4 2-4 15-4 17 0 .92.43 1.4.88 1.67l1.71.86c-.45-.27-.87-.76-.87-1.67 0-2 8-15 4-17z" style="fill:#6e0101"/><linearGradient id="g" x1="12.56" x2="27.05" y1="32.68" y2="29.91" gradientUnits="userSpaceOnUse"><stop offset="0" stop-color="#b50404"/><stop offset=".996" stop-color="#e50606"/></linearGradient><path d="M15 8c4 2-4 15-4 17s2 2 2 2l9-18s1-2-1-3l-6-3c-2-1-3 1-3 1L4 20c-1 2 1 3 1 3s2 1 3-1v-3l2-1v-3l2-1v-3l2-1z" style="fill:url(#g)"/><path d="M26 44c2 6 6 10 6 10s-2 2 0 4-6-2-8 0-4-2-8-4c6-2 4-4 4-4 4 0 6-6 6-6z" style="fill:none;stroke:#000;stroke-width:4"/><radialGradient id="h" cx="0" cy="0" r="64" gradientTransform="matrix(.1875 0 0 .125 22 51)" gradientUnits="userSpaceOnUse"><stop offset="0" stop-color="#e3c9a3"/><stop offset="1" stop-color="#ae7625"/></radialGradient><path d="M26 44c2 6 6 10 6 10s-2 2 0 4-6-2-8 0-4-2-8-4c6-2 4-4 4-4 4 0 6-6 6-6" style="fill:url(#h)"/></svg>