<svg xmlns="http://www.w3.org/2000/svg" width="64" height="64" color-interpolation="linearRGB"><path d="M32 22c-6 0-10 4-10 10s4 10 10 10 10-4 10-10-4-10-10-10" style="fill:#010101;fill-opacity:.4" transform="matrix(1 0 0 .5 10.375 32.125)"/><path d="M32 22c-6 0-10 4-10 10s4 10 10 10 10-4 10-10-4-10-10-10" style="fill:#010101;fill-opacity:.4" transform="matrix(.5 0 0 .25 -.625 40.625)"/><path d="M32 22c-6 0-10 4-10 10s4 10 10 10 10-4 10-10-4-10-10-10" style="fill:#010101;fill-opacity:.4" transform="matrix(.4 0 0 .25 45.575 45.625)"/><linearGradient id="a" x1="64.37" x2="14.99" y1="118.55" y2="99.6" gradientUnits="userSpaceOnUse"><stop offset="0" style="stop-color:#000;stop-opacity:0"/><stop offset="1" stop-opacity="0" style="stop-color:#000;stop-opacity:1"/></linearGradient><path d="M21 45c12 12 28 16 36 8s4-24-8-36S21 1 13 9s-4 24 8 36z" style="fill:none;stroke:url(#a);stroke-width:2"/><linearGradient id="b" x1=".95" x2="56.82" y1="-59.53" y2="-45.05" gradientUnits="userSpaceOnUse"><stop offset="0" style="stop-color:#000;stop-opacity:0"/><stop offset="1" stop-opacity="0" style="stop-color:#000;stop-opacity:1"/></linearGradient><path d="M9 57c8 8 24 4 36-8s16-28 8-36c-7-7-24-4-36 8S1 49 9 57z" style="fill:none;stroke:url(#b);stroke-width:2"/><path d="M32 22c-6 0-10 4-10 10s4 10 10 10 10-4 10-10-4-10-10-10z" style="fill:none;stroke:#000;stroke-width:4"/><radialGradient id="c" cx="0" cy="0" r="64" gradientTransform="translate(29 29)scale(.2222)" gradientUnits="userSpaceOnUse"><stop offset="0" stop-color="#fff"/><stop offset=".254" stop-color="#dc4747"/><stop offset=".769" stop-color="#890b0b"/><stop offset="1" stop-color="#a01e1e"/></radialGradient><path d="M32 22c-6 0-10 4-10 10s4 10 10 10 10-4 10-10-4-10-10-10" style="fill:url(#c)"/><path d="M32 22c-6 0-10 4-10 10s4 10 10 10 10-4 10-10-4-10-10-10z" style="fill:none;stroke:#000;stroke-width:7" transform="translate(-5.167 11.833)scale(.4583)"/><radialGradient id="d" cx="0" cy="0" r="64" gradientTransform="matrix(.1428 0 0 .1746 29 29)" gradientUnits="userSpaceOnUse"><stop offset="0" stop-color="#ffecc7"/><stop offset="1" stop-color="#ffa800"/></radialGradient><path d="M32 22c-6 0-10 4-10 10s4 10 10 10 10-4 10-10-4-10-10-10" style="fill:url(#d)" transform="translate(-5.167 11.833)scale(.4583)"/><path d="M32 22c-6 0-10 4-10 10s4 10 10 10 10-4 10-10-4-10-10-10z" style="fill:none;stroke:#000;stroke-width:10" transform="translate(42.5 25.5)scale(.375)"/><radialGradient id="e" cx="0" cy="0" r="64" gradientTransform="matrix(.1428 0 0 .1746 29 29)" gradientUnits="userSpaceOnUse"><stop offset="0" stop-color="#ffecc7"/><stop offset="1" stop-color="#ffa800"/></radialGradient><path d="M32 22c-6 0-10 4-10 10s4 10 10 10 10-4 10-10-4-10-10-10" style="fill:url(#e)" transform="translate(42.5 25.5)scale(.375)"/></svg>