<svg xmlns="http://www.w3.org/2000/svg" width="64" height="64" color-interpolation="linearRGB"><path d="M26 63h10c5 0 10.2-3.04 14.75-2.88 10.37.38 13.5-3.75 7.12-5.75C54.04 53.17 50 55 46 53c-2-1-12-1-12-1v4z" style="fill:#010101;fill-opacity:.4117"/><path d="M14 16v19l2 2v20l4 2h2v1l4 2 6-6V39l2-2V18l-13-6z" style="fill:none;stroke:#000;stroke-width:4"/><linearGradient id="a" x1="73.74" x2="116.61" y1="-57.07" y2="-8.05" gradientUnits="userSpaceOnUse"><stop offset="0" stop-color="#ffdb97"/><stop offset="1" stop-color="#fcaf29"/></linearGradient><path d="M14 16v18l2 3v20l4 2h2v1l4 2V42h2V22z" style="fill:url(#a)"/><linearGradient id="b" x1="-43.97" x2="-24.83" y1="-38.98" y2="-56.95" gradientUnits="userSpaceOnUse"><stop offset="0" stop-color="#fff7ea"/><stop offset=".996" stop-color="#fdd17b"/></linearGradient><path d="m14 16 14 6 6-4-12-2 3.99-2.01L21 12z" style="fill:url(#b)"/><linearGradient id="c" x1="54.23" x2="75.84" y1="-52.61" y2="-45.97" gradientUnits="userSpaceOnUse"><stop offset="0" stop-color="#c85805"/><stop offset="1" stop-color="#f06306"/></linearGradient><path d="M28 42h-2v20l6-6V39l2-2V18l-6 4z" style="fill:url(#c)"/><path d="M26 42v6l6-9-4 3z" style="fill:#a32904"/><linearGradient id="d" x1="25.92" x2="36.07" y1="-64" y2="-64" gradientUnits="userSpaceOnUse"><stop offset="0" stop-color="#c85804"/><stop offset="1" stop-color="#dc952f"/></linearGradient><path d="m22 16 12 2-8-4z" style="fill:url(#d)"/><path d="M24 2c-3 0-6 3-6 6s3 6 6 6 6-3 6-6-3-6-6-6z" style="fill:none;stroke:#000;stroke-width:4"/><radialGradient id="e" cx="0" cy="0" r="64" gradientTransform="matrix(.1736 0 0 .1696 22.625 6.375)" gradientUnits="userSpaceOnUse"><stop offset="0" stop-color="#f2f2f2"/><stop offset=".674" stop-color="#7d7a7a"/><stop offset="1" stop-color="#bca184"/></radialGradient><path d="M24 2c-3 0-6 3-6 6s3 6 6 6 6-3 6-6-3-6-6-6" style="fill:url(#e)"/><linearGradient id="f" x1="54.23" x2="75.84" y1="-52.61" y2="-45.97" gradientUnits="userSpaceOnUse"><stop offset="0" stop-color="#c85805"/><stop offset="1" stop-color="#f06306"/></linearGradient><path d="M20 59h2V42l-2-1z" style="fill:url(#f)"/><path d="M12 34v6l4 2 4-2v-6l4 4v6l-4 3v13s0 2-4 2-4-2-4-2V47l-4-3v-6z" style="fill:none;stroke:#010000;stroke-width:4;stroke-linejoin:round" transform="translate(32 -28)"/><linearGradient id="g" x1="64.85" x2="80.64" y1="-37.99" y2="-27.31" gradientUnits="userSpaceOnUse"><stop offset="0" stop-color="#ebebeb"/><stop offset="1" stop-color="#adadad"/></linearGradient><path d="M12 34v6l4 2 4-2v-6l4 4v6l-4 3v13s0 2-4 2-4-2-4-2V47l-4-3v-6z" style="fill:url(#g)" transform="translate(32 -28)"/></svg>